<svg xmlns="http://www.w3.org/2000/svg" version="1.1" xmlns:xlink="http://www.w3.org/1999/xlink" xmlns:svgjs="http://svgjs.dev/svgjs" viewBox="0 0 6.45982997443967 7.247207380848629"><g transform="matrix(1,0,0,1,1.4085681854620227,5.093231860501383)"><g><path d=" M 0.4523507080078125 0.006514892578124987 L 0.7272791748046875 0.006514892578124987 L 0.7272791748046875 0.09511743164062492 L 0.5648411865234375 0.09511743164062492 L 0.5648411865234375 0.3170581054687499 L 0.6903614501953126 0.3170581054687499 L 0.6903614501953126 0.40566064453124995 L 0.5648411865234375 0.40566064453124995 L 0.5648411865234375 0.6597414550781249 L 0.7316224365234375 0.6597414550781249 L 0.7316224365234375 0.7483439941406249 L 0.4523507080078125 0.7483439941406249 L 0.4523507080078125 0.006514892578124987 M 0.8171846923828124 0.006514892578124987 L 0.9083931884765625 0.006514892578124987 L 1.0882042236328124 0.5029497070312499 L 1.0908101806640624 0.5029497070312499 Q 1.0895072021484373 0.48557666015624995 1.0873355712890624 0.46429467773437494 Q 1.0851639404296876 0.4430126953124999 1.0834266357421876 0.4158673095703124 Q 1.0816893310546876 0.3887219238281249 1.0803863525390625 0.35441015624999994 Q 1.0790833740234373 0.32009838867187496 1.0790833740234373 0.27710009765624993 L 1.0790833740234373 0.006514892578124987 L 1.1798470458984374 0.006514892578124987 L 1.1798470458984374 0.7483439941406249 L 1.0877698974609373 0.7483439941406249 L 0.9088275146484375 0.26493896484374996 L 0.9053529052734375 0.26493896484374996 Q 0.9066558837890625 0.2844836425781249 0.9088275146484375 0.3072857666015624 Q 0.9109991455078125 0.33008789062499994 0.9127364501953125 0.36092504882812493 Q 0.9144737548828125 0.3917622070312499 0.9157767333984375 0.43280603027343745 Q 0.9170797119140625 0.4738498535156249 0.9170797119140625 0.5303122558593749 L 0.9170797119140625 0.7483439941406249 L 0.8171846923828124 0.7483439941406249 L 0.8171846923828124 0.006514892578124987 M 1.3110135498046875 0.006514892578124987 L 1.4278472900390624 0.006514892578124987 Q 1.4543411865234375 0.006514892578124987 1.4827895507812499 0.008035034179687428 Q 1.5112379150390625 0.00955517578124998 1.53838330078125 0.017373046874999964 Q 1.5655286865234375 0.02519091796874995 1.5896337890624999 0.04147814941406247 Q 1.6137388916015625 0.05776538085937499 1.6319805908203124 0.08708239746093749 Q 1.6502222900390624 0.11639941406249998 1.66086328125 0.16091784667968745 Q 1.6715042724609375 0.2054362792968749 1.6715042724609375 0.26971655273437495 L 1.6715042724609375 0.48514233398437495 Q 1.6715042724609375 0.5494226074218749 1.66086328125 0.5941582031249999 Q 1.6502222900390624 0.6388937988281249 1.6319805908203124 0.66799365234375 Q 1.6137388916015625 0.6970935058593749 1.5896337890624999 0.7133807373046874 Q 1.5655286865234375 0.72966796875 1.53838330078125 0.7374858398437499 Q 1.5112379150390625 0.7453037109374999 1.4827895507812499 0.7468238525390624 Q 1.4543411865234375 0.7483439941406249 1.4278472900390624 0.7483439941406249 L 1.3110135498046875 0.7483439941406249 L 1.3110135498046875 0.006514892578124987 M 1.4521695556640624 0.66973095703125 Q 1.4825723876953125 0.66973095703125 1.502334228515625 0.6619130859375 Q 1.5220960693359373 0.6540952148437499 1.5336057128906249 0.6343333740234374 Q 1.5451153564453124 0.614571533203125 1.5494586181640624 0.5804769287109375 Q 1.5538018798828124 0.5463823242187499 1.5538018798828124 0.49426318359374993 L 1.5538018798828124 0.26407031249999996 Q 1.5538018798828124 0.2119511718749999 1.5494586181640624 0.1778565673828124 Q 1.5451153564453124 0.14376196289062493 1.5336057128906249 0.12400012207031241 Q 1.5220960693359373 0.1042382812499999 1.502334228515625 0.09642041015624991 Q 1.4825723876953125 0.08860253906249993 1.4521695556640624 0.08860253906249993 L 1.4235040283203124 0.08860253906249993 L 1.4235040283203124 0.66973095703125 L 1.4521695556640624 0.66973095703125 M 1.7761768798828126 0.006514892578124987 L 1.8886673583984375 0.006514892578124987 L 1.8886673583984375 0.6597414550781249 L 2.0419844970703123 0.6597414550781249 L 2.0419844970703123 0.7483439941406249 L 1.7761768798828126 0.7483439941406249 L 1.7761768798828126 0.006514892578124987 M 2.1175572509765628 0.006514892578124987 L 2.3924857177734378 0.006514892578124987 L 2.3924857177734378 0.09511743164062492 L 2.230047729492188 0.09511743164062492 L 2.230047729492188 0.3170581054687499 L 2.3555679931640627 0.3170581054687499 L 2.3555679931640627 0.40566064453124995 L 2.230047729492188 0.40566064453124995 L 2.230047729492188 0.6597414550781249 L 2.3968289794921875 0.6597414550781249 L 2.3968289794921875 0.7483439941406249 L 2.1175572509765628 0.7483439941406249 L 2.1175572509765628 0.006514892578124987 M 2.4537257080078128 0.5980671386718749 Q 2.4537257080078128 0.5741791992187499 2.4565488281250003 0.5539830322265624 Q 2.459371948242188 0.5337868652343749 2.465018188476563 0.510333251953125 L 2.552317749023438 0.510333251953125 L 2.552317749023438 0.5463823242187499 Q 2.552317749023438 0.5763508300781249 2.556009521484375 0.5993701171874999 Q 2.559701293945313 0.622389404296875 2.568170654296875 0.6382423095703125 Q 2.576640014648438 0.6540952148437499 2.590755615234375 0.6621302490234374 Q 2.604871215820313 0.670165283203125 2.6252845458984377 0.670165283203125 Q 2.657424682617188 0.670165283203125 2.6743634033203127 0.6525750732421874 Q 2.691302124023438 0.6349848632812499 2.691302124023438 0.6011074218749999 Q 2.691302124023438 0.5837343749999999 2.688913330078125 0.5691844482421874 Q 2.6865245361328127 0.5546345214843749 2.6806611328125003 0.5403017578124999 Q 2.674797729492188 0.5259689941406249 2.664808227539063 0.5101160888671874 Q 2.6548187255859377 0.49426318359374993 2.6391829833984377 0.4747185058593749 L 2.5219149169921877 0.3352998046874999 Q 2.490643432617188 0.29534179687499995 2.473704711914063 0.2547322998046874 Q 2.4567659912109376 0.2141228027343749 2.4567659912109376 0.168084228515625 Q 2.4567659912109376 0.13116650390624995 2.468275634765625 0.1003293457031249 Q 2.4797852783203127 0.06949218749999997 2.501501586914063 0.04712438964843746 Q 2.5232178955078126 0.02475659179687495 2.5551408691406254 0.01237829589843742 Q 2.587063842773438 0 2.627456176757813 0 Q 2.676535034179688 0 2.7093266601562505 0.013898437499999972 Q 2.742118286132813 0.027796874999999943 2.7616629638671877 0.0503818359374999 Q 2.7812076416015628 0.07296679687499996 2.7892426757812503 0.10098083496093746 Q 2.797277709960938 0.12899487304687496 2.797277709960938 0.1572260742187499 Q 2.797277709960938 0.18111401367187496 2.7935859375000005 0.20131018066406248 Q 2.7898941650390627 0.22150634765625 2.785116577148438 0.24582861328124994 L 2.698251342773438 0.24582861328124994 L 2.698251342773438 0.2106481933593749 Q 2.698251342773438 0.1515798339843749 2.6813126220703127 0.12009118652343742 Q 2.664373901367188 0.08860253906249993 2.626153198242188 0.08860253906249993 Q 2.594447387695313 0.08860253906249993 2.578811645507813 0.10619274902343745 Q 2.563175903320313 0.12378295898437497 2.563175903320313 0.1533171386718749 Q 2.563175903320313 0.168952880859375 2.5655646972656254 0.18154833984374996 Q 2.567953491210938 0.19414379882812494 2.5725139160156254 0.20478479003906247 Q 2.577074340820313 0.2154257812499999 2.583589233398438 0.22541528320312498 Q 2.5901041259765627 0.23540478515624996 2.598356323242188 0.24626293945312494 L 2.729088500976563 0.40435766601562495 Q 2.7647032470703126 0.4508305664062499 2.783813598632813 0.49361169433593743 Q 2.802923950195313 0.5363928222656249 2.802923950195313 0.5841687011718749 Q 2.802923950195313 0.6236923828125 2.790545654296875 0.6553981933593749 Q 2.778167358398438 0.6871040039062499 2.755148071289063 0.7092546386718749 Q 2.7321287841796877 0.7314052734375 2.699554321289063 0.7433492431640624 Q 2.6669798583984377 0.7552932128906249 2.626153198242188 0.7552932128906249 Q 2.5757713623046876 0.7552932128906249 2.5425454101562504 0.7418291015624999 Q 2.5093194580078126 0.728364990234375 2.4895576171875002 0.7062143554687499 Q 2.469795776367188 0.6840637207031249 2.4617607421875003 0.6558325195312499 Q 2.4537257080078128 0.6276013183593749 2.4537257080078128 0.5980671386718749 M 2.8732847900390626 0.5980671386718749 Q 2.8732847900390626 0.5741791992187499 2.87610791015625 0.5539830322265624 Q 2.8789310302734377 0.5337868652343749 2.8845772705078128 0.510333251953125 L 2.9718768310546877 0.510333251953125 L 2.9718768310546877 0.5463823242187499 Q 2.9718768310546877 0.5763508300781249 2.975568603515625 0.5993701171874999 Q 2.979260375976563 0.622389404296875 2.987729736328125 0.6382423095703125 Q 2.9961990966796876 0.6540952148437499 3.010314697265625 0.6621302490234374 Q 3.0244302978515627 0.670165283203125 3.0448436279296875 0.670165283203125 Q 3.0769837646484377 0.670165283203125 3.0939224853515626 0.6525750732421874 Q 3.110861206054688 0.6349848632812499 3.110861206054688 0.6011074218749999 Q 3.110861206054688 0.5837343749999999 3.108472412109375 0.5691844482421874 Q 3.1060836181640625 0.5546345214843749 3.10022021484375 0.5403017578124999 Q 3.0943568115234377 0.5259689941406249 3.084367309570313 0.5101160888671874 Q 3.0743778076171875 0.49426318359374993 3.0587420654296875 0.4747185058593749 L 2.9414739990234375 0.3352998046874999 Q 2.9102025146484376 0.29534179687499995 2.8932637939453127 0.2547322998046874 Q 2.8763250732421874 0.2141228027343749 2.8763250732421874 0.168084228515625 Q 2.8763250732421874 0.13116650390624995 2.887834716796875 0.1003293457031249 Q 2.8993443603515625 0.06949218749999997 2.9210606689453127 0.04712438964843746 Q 2.9427769775390624 0.02475659179687495 2.9746999511718752 0.01237829589843742 Q 3.0066229248046876 0 3.0470152587890627 0 Q 3.0960941162109377 0 3.1288857421875003 0.013898437499999972 Q 3.161677368164063 0.027796874999999943 3.1812220458984375 0.0503818359374999 Q 3.2007667236328126 0.07296679687499996 3.2088017578125 0.10098083496093746 Q 3.2168367919921876 0.12899487304687496 3.2168367919921876 0.1572260742187499 Q 3.2168367919921876 0.18111401367187496 3.2131450195312503 0.20131018066406248 Q 3.2094532470703125 0.22150634765625 3.2046756591796877 0.24582861328124994 L 3.117810424804688 0.24582861328124994 L 3.117810424804688 0.2106481933593749 Q 3.117810424804688 0.1515798339843749 3.1008717041015625 0.12009118652343742 Q 3.0839329833984377 0.08860253906249993 3.0457122802734378 0.08860253906249993 Q 3.0140064697265627 0.08860253906249993 2.9983707275390628 0.10619274902343745 Q 2.982734985351563 0.12378295898437497 2.982734985351563 0.1533171386718749 Q 2.982734985351563 0.168952880859375 2.9851237792968752 0.18154833984374996 Q 2.9875125732421877 0.19414379882812494 2.992072998046875 0.20478479003906247 Q 2.9966334228515628 0.2154257812499999 3.0031483154296876 0.22541528320312498 Q 3.0096632080078125 0.23540478515624996 3.017915405273438 0.24626293945312494 L 3.1486475830078127 0.40435766601562495 Q 3.1842623291015624 0.4508305664062499 3.2033726806640628 0.49361169433593743 Q 3.2224830322265627 0.5363928222656249 3.2224830322265627 0.5841687011718749 Q 3.2224830322265627 0.6236923828125 3.210104736328125 0.6553981933593749 Q 3.1977264404296877 0.6871040039062499 3.1747071533203126 0.7092546386718749 Q 3.1516878662109375 0.7314052734375 3.1191134033203127 0.7433492431640624 Q 3.0865389404296875 0.7552932128906249 3.0457122802734378 0.7552932128906249 Q 2.9953304443359374 0.7552932128906249 2.9621044921875 0.7418291015624999 Q 2.9288785400390625 0.728364990234375 2.90911669921875 0.7062143554687499 Q 2.8893548583984376 0.6840637207031249 2.88131982421875 0.6558325195312499 Q 2.8732847900390626 0.6276013183593749 2.8732847900390626 0.5980671386718749 M 0.06341162109375 0.83563660546875 L 0.2102138671875 0.83563660546875 L 0.281443359375 1.1227262050781248 Q 0.29273583984375 1.170502083984375 0.299250732421875 1.2137175380859375 Q 0.305765625 1.2569329921874999 0.31184619140625 1.2951536953125 L 0.31532080078124997 1.2951536953125 Q 0.3214013671875 1.2569329921874999 0.327916259765625 1.2137175380859375 Q 0.33443115234375 1.170502083984375 0.34572363281249996 1.1227262050781248 L 0.419124755859375 0.83563660546875 L 0.56288671875 0.83563660546875 L 0.56288671875 1.5774657070312499 L 0.45777978515624995 1.5774657070312499 L 0.45777978515624995 1.3320714199218748 Q 0.45777978515624995 1.275609017578125 0.4588656005859375 1.2234898769531248 Q 0.459951416015625 1.171370736328125 0.461688720703125 1.1277209560546875 Q 0.463426025390625 1.0840711757812498 0.46559765625 1.050628060546875 Q 0.467769287109375 1.0171849453125 0.469506591796875 0.997640267578125 L 0.46125439453125 0.997640267578125 L 0.3491982421875 1.4819139492187499 L 0.27796875 1.4819139492187499 L 0.1650439453125 0.997640267578125 L 0.15679174804687498 0.997640267578125 Q 0.15852905273437498 1.0171849453125 0.16070068359375 1.050628060546875 Q 0.162872314453125 1.0840711757812498 0.164609619140625 1.1277209560546875 Q 0.166346923828125 1.171370736328125 0.1674327392578125 1.2234898769531248 Q 0.1685185546875 1.275609017578125 0.1685185546875 1.3320714199218748 L 0.1685185546875 1.5774657070312499 L 0.06341162109375 1.5774657070312499 L 0.06341162109375 0.83563660546875 M 0.8582285156249999 1.583980599609375 Q 0.840421142578125 1.583980599609375 0.819573486328125 1.5811574794921874 Q 0.7987258300781249 1.5783343593749999 0.7783125 1.5692135097656248 Q 0.7578991699218749 1.56009266015625 0.7390059814453125 1.5433711025390624 Q 0.72011279296875 1.5266495449218749 0.7055628662109374 1.4992869960937498 Q 0.6910129394531249 1.471924447265625 0.6823264160156249 1.4317492763671873 Q 0.673639892578125 1.3915741054687498 0.673639892578125 1.33598035546875 L 0.673639892578125 1.073213021484375 Q 0.673639892578125 1.0171849453125 0.6825435791015624 0.9774441005859374 Q 0.6914472656249999 0.9377032558593749 0.7062143554687499 0.9105578701171875 Q 0.7209814453125 0.883412484375 0.7398746337890625 0.8673424160156249 Q 0.7587678222656249 0.8512723476562499 0.7793983154296874 0.8428029873046874 Q 0.8000288085937499 0.834333626953125 0.820442138671875 0.831727669921875 Q 0.84085546875 0.829121712890625 0.8582285156249999 0.829121712890625 Q 0.87473291015625 0.829121712890625 0.8949290771484375 0.8315105068359374 Q 0.9151252441406249 0.83389930078125 0.9353214111328124 0.8419343349609374 Q 0.9555175781249999 0.8499693691406249 0.9746279296874999 0.8658222744140625 Q 0.99373828125 0.8816751796874999 1.00850537109375 0.9088205654296874 Q 1.0232724609375 0.9359659511718749 1.0321761474609374 0.9761411220703125 Q 1.041079833984375 1.01631629296875 1.041079833984375 1.073213021484375 L 1.041079833984375 1.33598035546875 Q 1.041079833984375 1.391139779296875 1.0319589843749999 1.4308806240234373 Q 1.022838134765625 1.4706214687499999 1.0080710449218748 1.4982011806640625 Q 0.9933039550781249 1.5257808925781249 0.9739764404296873 1.5425024501953124 Q 0.9546489257812499 1.5592240078125 0.9344527587890624 1.5685620205078123 Q 0.9142565917968749 1.577900033203125 0.8942775878906248 1.5809403164062499 Q 0.8742985839843749 1.583980599609375 0.8582285156249999 1.583980599609375 M 0.8582285156249999 1.4992869960937498 Q 0.87473291015625 1.4992869960937498 0.8871112060546874 1.493640755859375 Q 0.8994895019531249 1.4879945156249998 0.9075245361328124 1.4740960781249999 Q 0.9155595703124999 1.460197640625 0.9196856689453123 1.4373955166015624 Q 0.923811767578125 1.4145933925781249 0.923811767578125 1.379847298828125 L 0.923811767578125 1.0423758632812499 Q 0.923811767578125 1.0067611171875 0.9196856689453123 0.9828731777343749 Q 0.9155595703124999 0.9589852382812499 0.9075245361328124 0.9444353115234374 Q 0.8994895019531249 0.9298853847656249 0.8871112060546874 0.9238048183593749 Q 0.87473291015625 0.9177242519531249 0.8582285156249999 0.9177242519531249 Q 0.841289794921875 0.9177242519531249 0.8286943359374999 0.9238048183593749 Q 0.8160988769531249 0.9298853847656249 0.8078466796874999 0.9444353115234374 Q 0.7995944824218749 0.9589852382812499 0.7954683837890624 0.9828731777343749 Q 0.7913422851562499 1.0067611171875 0.7913422851562499 1.0423758632812499 L 0.7913422851562499 1.379847298828125 Q 0.7913422851562499 1.4145933925781249 0.7954683837890624 1.4373955166015624 Q 0.7995944824218749 1.460197640625 0.8078466796874999 1.4740960781249999 Q 0.8160988769531249 1.4879945156249998 0.8286943359374999 1.493640755859375 Q 0.841289794921875 1.4992869960937498 0.8582285156249999 1.4992869960937498 M 1.0966735839843749 0.83563660546875 L 1.2117700195312497 0.83563660546875 L 1.2934233398437498 1.4232799160156249 L 1.2982009277343747 1.4232799160156249 L 1.3802885742187496 0.83563660546875 L 1.4949506835937498 0.83563660546875 L 1.3598752441406248 1.5774657070312499 L 1.2313146972656248 1.5774657070312499 L 1.0966735839843749 0.83563660546875 M 1.5709577636718748 0.83563660546875 L 1.6834482421874997 0.83563660546875 L 1.6834482421874997 1.5774657070312499 L 1.5709577636718748 1.5774657070312499 L 1.5709577636718748 0.83563660546875 M 1.8146147460937498 0.83563660546875 L 2.0895432128906246 0.83563660546875 L 2.0895432128906246 0.9242391445312499 L 1.9271052246093747 0.9242391445312499 L 1.9271052246093747 1.146179818359375 L 2.0526254882812496 1.146179818359375 L 2.0526254882812496 1.2347823574218748 L 1.9271052246093747 1.2347823574218748 L 1.9271052246093747 1.4888631679687498 L 2.093886474609375 1.4888631679687498 L 2.093886474609375 1.5774657070312499 L 1.8146147460937498 1.5774657070312499 L 1.8146147460937498 0.83563660546875 M 2.37402685546875 0.83563660546875 L 2.657641845703125 0.83563660546875 L 2.657641845703125 0.9242391445312499 L 2.486517333984375 0.9242391445312499 L 2.486517333984375 1.146179818359375 L 2.6207241210937497 1.146179818359375 L 2.6207241210937497 1.2347823574218748 L 2.486517333984375 1.2347823574218748 L 2.486517333984375 1.5774657070312499 L 2.37402685546875 1.5774657070312499 L 2.37402685546875 0.83563660546875 M 2.7345175781249997 0.83563660546875 L 2.847876708984375 0.83563660546875 L 2.847876708984375 1.3794129726562498 Q 2.847876708984375 1.41415906640625 2.851351318359375 1.4371783535156248 Q 2.854825927734375 1.460197640625 2.8624266357421875 1.4738789150390623 Q 2.87002734375 1.487560189453125 2.8819713134765625 1.4934235927734374 Q 2.8939152832031247 1.4992869960937498 2.910419677734375 1.4992869960937498 Q 2.9269240722656247 1.4992869960937498 2.9393023681640624 1.4934235927734374 Q 2.9516806640624997 1.487560189453125 2.9597156982421873 1.4738789150390623 Q 2.967750732421875 1.460197640625 2.9718768310546873 1.4371783535156248 Q 2.9760029296874997 1.41415906640625 2.9760029296874997 1.3794129726562498 L 2.9760029296874997 0.83563660546875 L 3.0880590820312497 0.83563660546875 L 3.0880590820312497 1.349444466796875 Q 3.0880590820312497 1.40373523828125 3.0793725585937497 1.4423902675781248 Q 3.0706860351562497 1.4810452968749999 3.056353271484375 1.5071048671874998 Q 3.0420205078125 1.5331644375 3.0235616455078125 1.5483658535156248 Q 3.005102783203125 1.56356726953125 2.9853409423828126 1.5716023037109375 Q 2.9655791015624997 1.579637337890625 2.9460344238281246 1.5818089687499999 Q 2.92648974609375 1.583980599609375 2.910419677734375 1.583980599609375 Q 2.894349609375 1.583980599609375 2.875022094726562 1.5818089687499999 Q 2.855694580078125 1.579637337890625 2.8361499023437498 1.5716023037109375 Q 2.8166052246093747 1.56356726953125 2.798363525390625 1.5483658535156248 Q 2.7801218261718748 1.5331644375 2.7657890624999997 1.5071048671874998 Q 2.751456298828125 1.4810452968749999 2.7429869384765624 1.4426074306640624 Q 2.7345175781249997 1.404169564453125 2.7345175781249997 1.349444466796875 L 2.7345175781249997 0.83563660546875 M 3.21661962890625 0.83563660546875 L 3.307828125 0.83563660546875 L 3.4876391601562498 1.3320714199218748 L 3.4902451171874995 1.3320714199218748 Q 3.4889421386718746 1.3146983730468749 3.4867705078124995 1.293416390625 Q 3.484598876953125 1.272134408203125 3.482861572265625 1.2449890224609375 Q 3.481124267578125 1.21784363671875 3.4798212890624995 1.183531869140625 Q 3.4785183105468747 1.1492201015624999 3.4785183105468747 1.1062218105468749 L 3.4785183105468747 0.83563660546875 L 3.579281982421875 0.83563660546875 L 3.579281982421875 1.5774657070312499 L 3.4872048339843746 1.5774657070312499 L 3.3082624511718746 1.0940606777343749 L 3.3047878417968746 1.0940606777343749 Q 3.3060908203125 1.11360535546875 3.3082624511718746 1.1364074794921875 Q 3.3104340820312497 1.159209603515625 3.3121713867187497 1.19004676171875 Q 3.3139086914062497 1.2208839199218748 3.315211669921875 1.2619277431640623 Q 3.3165146484375 1.3029715664062498 3.3165146484375 1.3594339687499999 L 3.3165146484375 1.5774657070312499 L 3.21661962890625 1.5774657070312499 L 3.21661962890625 0.83563660546875" fill="#231f20" fill-rule="nonzero"></path></g><g></g><g clip-path="url(#SvgjsClipPath1001)"><g clip-path="url(#aaf7a00cc-cbec-4f60-9aac-c30f7ef33fdbeff2a7c1-74c3-4e04-9b26-c11f5f96f2d3)"><path d=" M 1.9373910191537693 -2.386613128335582 L 0.5498365108467536 -0.25 L 0.7278876048747187 -0.25 L 0.8029178693886865 -0.3654610806251206 C 0.8141140953886983 -0.38272192904180624 0.8372063115137225 -0.39671721154182116 0.8544671599304074 -0.39671721154182116 L 1.051800643180615 -0.39671721154182116 C 1.0690614915972998 -0.39671721154182116 1.0739598404723052 -0.38272192904180624 1.0627636144722932 -0.3654610806251206 L 0.9877333499583254 -0.25 L 2.6576038069184165 -0.25 L 2.7326340714323845 -0.3654610806251206 C 2.743830297432395 -0.38272192904180624 2.76692251355742 -0.39671721154182116 2.7841833619741054 -0.39671721154182116 L 2.981516845224313 -0.39671721154182116 C 2.9987776936409976 -0.39671721154182116 3.0036760425160027 -0.38272192904180624 2.992479816515991 -0.3654610806251206 L 2.917449552002023 -0.25 L 3.090680048724428 -0.25 L 4.478234557031444 -2.386613128335582 L 4.305004060309039 -2.386613128335582 L 4.217533544683947 -2.251869658488218 C 4.20625956711449 -2.2346088100715327 4.183167350989467 -2.2206135275715178 4.165906502572781 -2.2206135275715178 L 3.968650770892018 -2.2206135275715178 C 3.951312170905889 -2.2206135275715178 3.946413822030884 -2.2346088100715327 3.9576877996003397 -2.251869658488218 L 4.045158315225432 -2.386613128335582 L 2.3752878582653407 -2.386613128335582 L 2.287817342640249 -2.251869658488218 C 2.2766211166402375 -2.2346088100715327 2.2534511489457687 -2.2206135275715178 2.236190300529084 -2.2206135275715178 L 2.0389345688483207 -2.2206135275715178 C 2.021595968862191 -2.2206135275715178 2.0166976199871858 -2.2346088100715327 2.0279715975566424 -2.251869658488218 L 2.115442113181734 -2.386613128335582 Z M 3.0032095330993354 -0.7822094928477821 C 3.014483510668792 -0.7994703412644668 3.0375757267938157 -0.8134656237644817 3.0548365752105004 -0.8134656237644817 L 3.2521700584607087 -0.8134656237644817 C 3.2694309068773935 -0.8134656237644817 3.2743292557523986 -0.7994703412644668 3.263133029752387 -0.7822094928477821 L 3.134998443307807 -0.5848760095975742 C 3.123724465738351 -0.5676151611808891 3.1006322496133265 -0.5536198786808746 3.0833714011966418 -0.5536198786808746 L 2.8861156695158785 -0.5536198786808746 C 2.8687770695297488 -0.5536198786808746 2.8638787206547445 -0.5676151611808891 2.875074946654756 -0.5848760095975742 Z M 3.273862746335732 -1.198957905070443 C 3.285058972335743 -1.2162187534871274 3.3082289400302116 -1.2302140359871423 3.3254897884468972 -1.2302140359871423 L 3.5227455201276605 -1.2302140359871423 C 3.5400841201137894 -1.2302140359871423 3.5449824689887954 -1.2162187534871274 3.533708491419338 -1.198957905070443 L 3.4055739049747595 -1.0016244218202353 C 3.394377678974747 -0.9843635734035496 3.3712854628497224 -0.9703682909035352 3.3540246144330377 -0.9703682909035352 L 3.1566911311828303 -0.9703682909035352 C 3.1394302827661456 -0.9703682909035352 3.1345319338911404 -0.9843635734035496 3.145728159891152 -1.0016244218202353 Z M 3.544515959572127 -1.6157063172931032 C 3.5557121855721388 -1.632967165709788 3.5788044016971643 -1.6469624482098029 3.596065250113848 -1.6469624482098029 L 3.7933987333640564 -1.6469624482098029 C 3.810659581780742 -1.6469624482098029 3.8155579306557463 -1.632967165709788 3.8043617046557348 -1.6157063172931032 L 3.6762271182111546 -1.4183728340428958 C 3.665030892211143 -1.401111985626211 3.641938676086119 -1.3871167031261966 3.6246778276694336 -1.3871167031261966 L 3.427344344419226 -1.3871167031261966 C 3.4100834960025415 -1.3871167031261966 3.4051851471275363 -1.401111985626211 3.4163813731275487 -1.4183728340428958 Z M 3.815169172808524 -2.0324547295157642 C 3.8263653988085355 -2.049715577932449 3.8494576149335593 -2.063710860432464 3.866718463350244 -2.063710860432464 L 4.064051946600452 -2.063710860432464 C 4.081312795017137 -2.063710860432464 4.086211143892142 -2.049715577932449 4.075014917892131 -2.0324547295157642 L 3.9468803314475513 -1.8351212462655568 C 3.935684105447539 -1.8178603978488717 3.912591889322515 -1.8038651153488572 3.8952532893363854 -1.8038651153488572 L 3.697997557655623 -1.8038651153488572 C 3.6807367092389383 -1.8038651153488572 3.675760608794488 -1.8178603978488717 3.6870345863639438 -1.8351212462655568 Z M 1.073493331055638 -0.7822094928477821 C 1.0847673086250944 -0.7994703412644668 1.1078595247501188 -0.8134656237644817 1.1251203731668036 -0.8134656237644817 L 1.3224538564170112 -0.8134656237644817 C 1.3397147048336964 -0.8134656237644817 1.344613053708701 -0.7994703412644668 1.3334168277086895 -0.7822094928477821 L 1.2052822412641102 -0.5848760095975742 C 1.194008263694654 -0.5676151611808891 1.1709160475696294 -0.5536198786808746 1.1536551991529447 -0.5536198786808746 L 0.9563994674721819 -0.5536198786808746 C 0.9390608674860521 -0.5536198786808746 0.9341625186110472 -0.5676151611808891 0.9454364961805035 -0.5848760095975742 Z M 1.3441465442920342 -1.198957905070443 C 1.3554205218614908 -1.2162187534871274 1.3785127379865145 -1.2302140359871423 1.3957735864031993 -1.2302140359871423 L 1.5930293180839625 -1.2302140359871423 C 1.6103679180700918 -1.2302140359871423 1.6152662669450975 -1.2162187534871274 1.6039922893756409 -1.198957905070443 L 1.475857702931062 -1.0016244218202353 C 1.46466147693105 -0.9843635734035496 1.4415692608060253 -0.9703682909035352 1.424308412389341 -0.9703682909035352 L 1.2269749291391332 -0.9703682909035352 C 1.209714080722448 -0.9703682909035352 1.2048157318474428 -0.9843635734035496 1.2160119578474549 -1.0016244218202353 Z M 1.61479975752843 -1.6157063172931032 C 1.6259959835284417 -1.632967165709788 1.6490881996534663 -1.6469624482098029 1.6664267996395952 -1.6469624482098029 L 1.8636825313203589 -1.6469624482098029 C 1.8809433797370436 -1.6469624482098029 1.8858417286120488 -1.632967165709788 1.8746455026120368 -1.6157063172931032 L 1.7465109161674575 -1.4183728340428958 C 1.7353146901674454 -1.401111985626211 1.7122224740424217 -1.3871167031261966 1.6949616256257365 -1.3871167031261966 L 1.4976281423755287 -1.3871167031261966 C 1.4803672939588444 -1.3871167031261966 1.4754689450838387 -1.401111985626211 1.4866651710838508 -1.4183728340428958 Z M 1.885452970764826 -2.0324547295157642 C 1.8966491967648376 -2.049715577932449 1.9197414128898622 -2.063710860432464 1.937002261306547 -2.063710860432464 L 2.134335744556754 -2.063710860432464 C 2.1515965929734397 -2.063710860432464 2.156494941848444 -2.049715577932449 2.1452987158484325 -2.0324547295157642 L 2.017164129403853 -1.8351212462655568 C 2.0059679034038416 -1.8178603978488717 1.9828756872788171 -1.8038651153488572 1.9655370872926878 -1.8038651153488572 L 1.7682813556119246 -1.8038651153488572 C 1.7510205071952398 -1.8038651153488572 1.7461221583202347 -1.8178603978488717 1.7573183843202462 -1.8351212462655568 Z" fill="#bdbcbc" transform="matrix(1,0,0,1,0,0)" fill-rule="nonzero"></path></g><g clip-path="url(#aaf7a00cc-cbec-4f60-9aac-c30f7ef33fdbeff2a7c1-74c3-4e04-9b26-c11f5f96f2d3)"><path d=" M 0.7270323376108285 -0.25 L 0.6395618219857364 -0.3847434698473631 C 0.62828784441628 -0.4020043182640487 0.6331861932912852 -0.4159996007640636 0.6505247932774147 -0.4159996007640636 L 0.8477805249581778 -0.4159996007640636 C 0.8650413733748628 -0.4159996007640636 0.8881335894998867 -0.4020043182640487 0.8994075670693433 -0.3847434698473631 L 0.9868780826944352 -0.25 L 2.656748539654526 -0.25 L 2.569200272459989 -0.3847434698473631 C 2.5580040464599776 -0.4020043182640487 2.5629023953349828 -0.4159996007640636 2.5802409953211125 -0.4159996007640636 L 2.777496727001875 -0.4159996007640636 C 2.7947575754185596 -0.4159996007640636 2.8178497915435843 -0.4020043182640487 2.829123769113041 -0.3847434698473631 L 2.9165942847381325 -0.25 L 3.0898247814605373 -0.25 L 1.7022702731535213 -2.386613128335582 L 1.529039776431117 -2.386613128335582 L 1.6040700409450845 -2.27115204771046 C 1.615266266945097 -2.253891199293775 1.6103679180700914 -2.2398959167937607 1.5931070696534062 -2.2398959167937607 L 1.3957735864031993 -2.2398959167937607 C 1.378512737986514 -2.2398959167937607 1.3554205218614894 -2.253891199293775 1.3442242958614783 -2.27115204771046 L 1.2691940313475103 -2.386613128335582 L -0.40067642561258043 -2.386613128335582 L -0.32564616109861255 -2.27115204771046 C -0.31444993509860086 -2.253891199293775 -0.31934828397360593 -2.2398959167937607 -0.3366091323902908 -2.2398959167937607 L -0.5339426156404985 -2.2398959167937607 C -0.5512034640571833 -2.2398959167937607 -0.5742956801822074 -2.253891199293775 -0.5854919061822195 -2.27115204771046 L -0.6605221706961873 -2.386613128335582 L -0.8385732647241524 -2.386613128335582 L 0.5489812435828634 -0.25 Z M 1.4866651710838503 -2.0517371187380067 C 1.4754689450838383 -2.0689979671546914 1.4803672939588435 -2.0829932496547063 1.4977058939449723 -2.0829932496547063 L 1.694961625625736 -2.0829932496547063 C 1.7122224740424203 -2.0829932496547063 1.735314690167445 -2.0689979671546914 1.7465886677369011 -2.0517371187380067 L 1.8747232541814804 -1.8544036354877993 C 1.8859194801814925 -1.8371427870711137 1.8810211313064868 -1.8231475045710992 1.8637602828898026 -1.8231475045710992 L 1.6664267996395947 -1.8231475045710992 C 1.64916595122291 -1.8231475045710992 1.6260737350978853 -1.8371427870711137 1.6147997575284292 -1.8544036354877993 Z M 1.7573183843202458 -1.6349887065153461 C 1.7461221583202347 -1.6522495549320309 1.7510205071952394 -1.6662448374320458 1.7682813556119246 -1.6662448374320458 L 1.965614838862132 -1.6662448374320458 C 1.9828756872788167 -1.6662448374320458 2.0059679034038407 -1.6522495549320309 2.017164129403853 -1.6349887065153461 L 2.1452987158484325 -1.4376552232651383 C 2.156572693417888 -1.420394374848453 2.151674344542884 -1.4063990923484386 2.134335744556754 -1.4063990923484386 L 1.937080012875991 -1.4063990923484386 C 1.919819164459306 -1.4063990923484386 1.8966491967648371 -1.420394374848453 1.885452970764826 -1.4376552232651383 Z M 2.0279715975566424 -1.218240294292685 C 2.01677537155663 -1.2355011427093698 2.021673720431635 -1.2494964252093848 2.03893456884832 -1.2494964252093848 L 2.236268052098527 -1.2494964252093848 C 2.253528900515213 -1.2494964252093848 2.2766211166402366 -1.2355011427093698 2.287817342640249 -1.218240294292685 L 2.4159519290848275 -1.0209068110424773 C 2.427148155084839 -1.0036459626257925 2.4222498062098348 -0.9896506801257781 2.40498895779315 -0.9896506801257781 L 2.2076554745429426 -0.9896506801257781 C 2.190394626126257 -0.9896506801257781 2.1673024100012324 -1.0036459626257925 2.1561061840012217 -1.0209068110424773 Z M 2.2986248107930383 -0.8014918820700245 C 2.2873508332235817 -0.8187527304867093 2.292326933668032 -0.8327480129867237 2.3095877820847157 -0.8327480129867237 L 2.506843513765479 -0.8327480129867237 C 2.5241821137516087 -0.8327480129867237 2.5472743298766325 -0.8187527304867093 2.558470555876645 -0.8014918820700245 L 2.6866051423212243 -0.6041583988198167 C 2.697801368321236 -0.586897550403132 2.69290301944623 -0.572902267903117 2.675642171029546 -0.572902267903117 L 2.4783086877793377 -0.572902267903117 C 2.461047839362654 -0.572902267903117 2.437955623237629 -0.586897550403132 2.4267593972376167 -0.6041583988198167 Z M -0.4429732793904029 -2.0517371187380067 C -0.4542472569598591 -2.0689979671546914 -0.449348908084854 -2.0829932496547063 -0.4320103080987248 -2.0829932496547063 L -0.2347545764179615 -2.0829932496547063 C -0.21749372800127675 -2.0829932496547063 -0.19440151187625232 -2.0689979671546914 -0.18312753430679607 -2.0517371187380067 L -0.05499294786221676 -1.8544036354877993 C -0.04379672186220507 -1.8371427870711137 -0.048695070737210244 -1.8231475045710992 -0.06595591915389498 -1.8231475045710992 L -0.2632894024041027 -1.8231475045710992 C -0.28055025082078755 -1.8231475045710992 -0.3036424669458119 -1.8371427870711137 -0.3149164445152681 -1.8544036354877993 Z M -0.17239781772345142 -1.6349887065153461 C -0.18359404372346322 -1.6522495549320309 -0.17869569484845804 -1.6662448374320458 -0.1614348464317732 -1.6662448374320458 L 0.035898636818434526 -1.6662448374320458 C 0.053159485235119264 -1.6662448374320458 0.07625170136014359 -1.6522495549320309 0.08752567892959984 -1.6349887065153461 L 0.2155825138047347 -1.4376552232651383 C 0.22685649137419084 -1.420394374848453 0.22195814249918588 -1.4063990923484386 0.20461954251305636 -1.4063990923484386 L 0.007363810832293427 -1.4063990923484386 C -0.009897037584391422 -1.4063990923484386 -0.033067005278860195 -1.420394374848453 -0.044263231278872106 -1.4376552232651383 Z M 0.09825539551294438 -1.218240294292685 C 0.08705916951293269 -1.2355011427093698 0.09195751838793786 -1.2494964252093848 0.1092183668046226 -1.2494964252093848 L 0.3065518500548303 -1.2494964252093848 C 0.3238126984715153 -1.2494964252093848 0.3469049145965395 -1.2355011427093698 0.3581011405965513 -1.218240294292685 L 0.4862357270411306 -1.0209068110424773 C 0.4974319530411424 -1.0036459626257925 0.492533604166137 -0.9896506801257781 0.4752727557494525 -0.9896506801257781 L 0.2780170240686892 -0.9896506801257781 C 0.2606784240825599 -0.9896506801257781 0.2375862079575355 -1.0036459626257925 0.2263899819575239 -1.0209068110424773 Z M 0.3689086087493405 -0.8014918820700245 C 0.3577123827493287 -0.8187527304867093 0.36261073162433366 -0.8327480129867237 0.3798715800410186 -0.8327480129867237 L 0.5771273117217819 -0.8327480129867237 C 0.594465911707911 -0.8327480129867237 0.6175581278329354 -0.8187527304867093 0.6287543538329472 -0.8014918820700245 L 0.7568889402775267 -0.6041583988198167 C 0.7680851662775383 -0.586897550403132 0.7631868174025331 -0.572902267903117 0.7459259689858484 -0.572902267903117 L 0.5485924857356408 -0.572902267903117 C 0.5313316373189558 -0.572902267903117 0.5082394211939316 -0.586897550403132 0.4970431951939198 -0.6041583988198167 Z" fill="#696767" transform="matrix(1,0,0,1,0,0)" fill-rule="nonzero"></path></g><g clip-path="url(#aaf7a00cc-cbec-4f60-9aac-c30f7ef33fdbeff2a7c1-74c3-4e04-9b26-c11f5f96f2d3)"><path d=" M 0.3875689854160267 -3.9597606329066815 C 0.37030813699934195 -3.9597606329066815 0.3654097881243368 -3.9737559154066964 0.3766060141243488 -3.991016763823381 L 0.45521285083276464 -4.111998205879064 L 0.37061914327712 -4.248529961823652 L -0.8385732647241524 -2.386613128335582 L -0.6653427680017479 -2.386613128335582 L -0.5777945008072114 -2.5213565981829453 C -0.5665982748071996 -2.5386951981690746 -0.5435060586821753 -2.5526904806690895 -0.5262452102654904 -2.5526904806690895 L -0.3289117270152827 -2.5526904806690895 C -0.31165087859859797 -2.5526904806690895 -0.3067525297235928 -2.5386951981690746 -0.3179487557236045 -2.5213565981829453 L -0.4054192713486966 -2.386613128335582 L 1.2643734340419492 -2.386613128335582 L 1.351921701236486 -2.5213565981829453 C 1.363117927236498 -2.5386174465996305 1.3862101433615222 -2.5526904806690895 1.4034709917782069 -2.5526904806690895 L 1.4214316043198922 -2.5526904806690895 L 0.5495255045689751 -3.9597606329066815 Z M -0.047295542487208575 -2.9381050104056063 L -0.1754301289317879 -2.740849278724843 C -0.1866263549317997 -2.7235106787387138 -0.20979632262626857 -2.7095153962386993 -0.2270571710429533 -2.7095153962386993 L -0.4243129027237165 -2.7095153962386993 C -0.44157375114040137 -2.7095153962386993 -0.44654985158485105 -2.723510678738714 -0.4352758740153947 -2.7408492787248435 L -0.3071412875708155 -2.9381050104056063 C -0.2959450615708037 -2.9553658588222915 -0.27285284544577937 -2.969361141322306 -0.2555919970290945 -2.969361141322306 L -0.05825851377888691 -2.969361141322306 C -0.04099766536220206 -2.969361141322306 -0.036099316487196886 -2.9553658588222915 -0.047295542487208575 -2.9381050104056063 M 0.22335767074918733 -3.3548534226282674 L 0.09522308430460802 -3.1575976909475045 C 0.08394910673515177 -3.140259090961375 0.060856890610127445 -3.12626380846136 0.04359604219344271 -3.12626380846136 L -0.153737441056765 -3.12626380846136 C -0.17099828947344997 -3.12626380846136 -0.17589663834845504 -3.140259090961375 -0.16470041234844324 -3.1575976909475045 L -0.036565825903864035 -3.3548534226282674 C -0.025291848334407785 -3.3721142710449525 -0.002199632209383351 -3.386109553544967 0.015061216207301387 -3.386109553544967 L 0.212394699457509 -3.386109553544967 C 0.22965554787419373 -3.386109553544967 0.23455389674919913 -3.3721142710449525 0.22335767074918733 -3.3548534226282674 M 0.4939331324161387 -3.7716018348509284 L 0.3657985459715596 -3.57426835160072 C 0.3546023199715478 -3.5570075031840354 0.33151010384652335 -3.543012220684021 0.3142492554298386 -3.543012220684021 L 0.1169157721796309 -3.543012220684021 C 0.09965492376294605 -3.543012220684021 0.09475657488794087 -3.5570075031840354 0.10595280088795256 -3.57426835160072 L 0.23408738733253198 -3.771601834850928 C 0.24528361333254378 -3.7888626832676127 0.26845358102701256 -3.8028579657676276 0.2857144294436975 -3.8028579657676276 L 0.48297016112446034 -3.8028579657676276 C 0.5002310095411453 -3.8028579657676276 0.505207109985595 -3.7888626832676127 0.4939331324161387 -3.771601834850928" fill="#4b4748" transform="matrix(1,0,0,1,0,0)" fill-rule="nonzero"></path></g><g clip-path="url(#SvgjsClipPath1000eff2a7c1-74c3-4e04-9b26-c11f5f96f2d3)"><path d=" M 0.5490041504187626 -4.523236939763513 L 0.43121052271030513 -4.341920279818877 Z" fill="#231f20" transform="matrix(1,0,0,1,0,0)" fill-rule="nonzero"></path></g><g clip-path="url(#SvgjsClipPath1000eff2a7c1-74c3-4e04-9b26-c11f5f96f2d3)"><path d=" M 0.982100912859041 -4.523236939763513 L 2.5878263250273976 -4.485294173874585 Z" fill="#231f20" transform="matrix(1,0,0,1,0,0)" fill-rule="nonzero"></path></g><g clip-path="url(#baf7a00cc-cbec-4f60-9aac-c30f7ef33fdbeff2a7c1-74c3-4e04-9b26-c11f5f96f2d3)"><path d=" M 2.1420331499317617 -3.3861095535449666 L 1.9446996666815546 -3.3861095535449666 C 1.9274388182648694 -3.3861095535449666 1.9043466021398452 -3.372114271044952 1.8931503761398336 -3.354853422628267 L 1.7650157896952539 -3.1575199393780595 C 1.7538195636952423 -3.140259090961375 1.7587179125702475 -3.12626380846136 1.7759787609869326 -3.12626380846136 L 1.97331224423714 -3.12626380846136 C 1.9905730926538248 -3.12626380846136 2.013665308778849 -3.140259090961375 2.0248615347788617 -3.1575199393780595 L 2.15299612122344 -3.354853422628267 C 2.1641923472234517 -3.372114271044952 2.1592939983484465 -3.3861095535449666 2.1420331499317617 -3.3861095535449666" fill="#231f20" transform="matrix(1,0,0,1,0,0)" fill-rule="nonzero"></path></g><g clip-path="url(#baf7a00cc-cbec-4f60-9aac-c30f7ef33fdbeff2a7c1-74c3-4e04-9b26-c11f5f96f2d3)"><path d=" M 2.4126863631681585 -3.802857965767627 L 2.2153528799179503 -3.802857965767627 C 2.1980920315012655 -3.802857965767627 2.1749998153762418 -3.7888626832676127 2.1638035893762293 -3.7716018348509275 L 2.03566900293165 -3.57426835160072 C 2.0244727769316384 -3.5570075031840354 2.0293711258066436 -3.5430122206840204 2.0466319742233283 -3.5430122206840204 L 2.2439654574735366 -3.5430122206840204 C 2.2612263058902213 -3.5430122206840204 2.284318522015245 -3.5570075031840354 2.2955147480152576 -3.57426835160072 L 2.423649334459836 -3.7716018348509275 C 2.4348455604598485 -3.7888626832676127 2.4299472115848424 -3.802857965767627 2.4126863631681585 -3.802857965767627" fill="#231f20" transform="matrix(1,0,0,1,0,0)" fill-rule="nonzero"></path></g><g clip-path="url(#SvgjsClipPath1000eff2a7c1-74c3-4e04-9b26-c11f5f96f2d3)"><path d=" M 0.37056385244282963 -4.248462206409724 L 0.4312100766095601 -4.341919592882045 Z" fill="#231f20" transform="matrix(1,0,0,1,0,0)" fill-rule="nonzero"></path></g><g clip-path="url(#caf7a00cc-cbec-4f60-9aac-c30f7ef33fdbeff2a7c1-74c3-4e04-9b26-c11f5f96f2d3)"><path d=" M 2.6833395764045536 -4.219606377990289 L 2.486006093154346 -4.219606377990289 C 2.4687452447376614 -4.219606377990289 2.445653028612637 -4.205611095490274 2.434456802612625 -4.188350247073589 L 2.306322216168046 -3.991016763823381 C 2.2951259901680343 -3.9737559154066964 2.3000243390430395 -3.9597606329066815 2.3172851874597242 -3.9597606329066815 L 2.5146186707099316 -3.9597606329066815 C 2.5318795191266164 -3.9597606329066815 2.554971735251641 -3.9737559154066964 2.5661679612516526 -3.991016763823381 L 2.694302547696232 -4.188350247073589 C 2.7054987736962435 -4.205611095490274 2.7006004248212383 -4.219606377990289 2.6833395764045536 -4.219606377990289" fill="#231f20" transform="matrix(1,0,0,1,0,0)" fill-rule="nonzero"></path></g><g clip-path="url(#caf7a00cc-cbec-4f60-9aac-c30f7ef33fdbeff2a7c1-74c3-4e04-9b26-c11f5f96f2d3)"><path d=" M 2.9117736874325724 -4.523226256671164 L 2.8367434229186035 -4.407765176046042 C 2.825547196918593 -4.390426576059912 2.802454980793568 -4.376431293559898 2.7851941323768834 -4.376431293559898 L 2.587860649126675 -4.376431293559898 C 2.5705998007099904 -4.376431293559898 2.565701451834985 -4.390426576059912 2.576897677834997 -4.407765176046042 L 2.6033332114461363 -4.434744970643293 L 0.9820574853888746 -4.523226256671164 L 0.9070272208749068 -4.407765176046042 C 0.8958309948748953 -4.390426576059912 0.8727387787498706 -4.376431293559898 0.8554779303331859 -4.376431293559898 L 0.6581444470829783 -4.376431293559898 C 0.6408835986662931 -4.376431293559898 0.6359852497912883 -4.390426576059912 0.6471814757913001 -4.407765176046042 L 0.7256328093608273 -4.508608961615593 L 0.5468041996384168 -4.523226256671164 L 0.43118761587440635 -4.341909596726528 L 0.3705413917076754 -4.248452210254208 L 0.4551350992633205 -4.111998205879064 L 0.5046628489994835 -4.188272495504145 C 0.5159368265689399 -4.20553334392083 0.5390290426939641 -4.219606377990289 0.5562898911106491 -4.219606377990289 L 0.7536233743608567 -4.219606377990289 C 0.7708842227775419 -4.219606377990289 0.7757825716525466 -4.20553334392083 0.7645863456525348 -4.188272495504145 L 0.6364517592079559 -3.9910167638233816 C 0.6251777816384994 -3.9737559154066964 0.6020855655134749 -3.9596828813372373 0.5848247170967902 -3.9596828813372373 L 0.549447752999531 -3.9596828813372373 L 1.4213538527504481 -2.5526127290996454 L 1.6007267234589702 -2.5526127290996454 C 1.618065323445099 -2.5526127290996454 1.6229636723201046 -2.5386174465996305 1.6116896947506485 -2.5213565981829458 L 1.524219179125556 -2.386613128335582 L 1.7022702731535213 -2.386613128335582 L 3.0737302065855205 -4.493058647726688 Z M 1.882342907987044 -2.9381050104056063 L 1.754208321542465 -2.740771527155399 C 1.7430120955424526 -2.723510678738714 1.7199198794174289 -2.7095153962386993 1.7026590310007441 -2.7095153962386993 L 1.5053255477505367 -2.7095153962386993 C 1.4880646993338515 -2.7095153962386993 1.4831663504588468 -2.723510678738714 1.4943625764588584 -2.740771527155399 L 1.6224971629034377 -2.9381050104056063 C 1.6336933889034493 -2.9553658588222915 1.6567856050284735 -2.969361141322306 1.6741242050146032 -2.969361141322306 L 1.8713799366953665 -2.969361141322306 C 1.8886407851120512 -2.969361141322306 1.8935391339870564 -2.9553658588222915 1.8823429079870444 -2.9381050104056063 M 2.152996121223441 -3.354775671058823 L 2.0248615347788617 -3.1575199393780595 C 2.013665308778849 -3.140259090961375 1.9905730926538248 -3.12626380846136 1.9732344926676955 -3.12626380846136 L 1.7759787609869322 -3.12626380846136 C 1.7587179125702475 -3.12626380846136 1.7538195636952423 -3.140259090961375 1.7650157896952547 -3.1575199393780595 L 1.8931503761398336 -3.354775671058823 C 1.9043466021398452 -3.372114271044952 1.9274388182648698 -3.3861095535449666 1.9446996666815546 -3.3861095535449666 L 2.1420331499317617 -3.3861095535449666 C 2.1592939983484465 -3.3861095535449666 2.1641923472234517 -3.372114271044952 2.15299612122344 -3.354775671058823 M 2.423649334459836 -3.7715240832814834 L 2.2955147480152567 -3.57426835160072 C 2.284318522015245 -3.5570075031840354 2.2611485543207763 -3.543012220684021 2.2438877059040916 -3.543012220684021 L 2.0466319742233283 -3.543012220684021 C 2.0292933742371995 -3.543012220684021 2.0243950253621934 -3.5570075031840354 2.03566900293165 -3.57426835160072 L 2.1638035893762293 -3.7715240832814834 C 2.174999815376241 -3.788862683267613 2.1980920315012655 -3.8028579657676276 2.2153528799179503 -3.8028579657676276 L 2.4126863631681577 -3.8028579657676276 C 2.4299472115848424 -3.8028579657676276 2.4348455604598485 -3.788862683267613 2.423649334459836 -3.7715240832814834 M 2.694224796126788 -4.188272495504144 L 2.5661679612516526 -3.991016763823381 C 2.554893983682197 -3.973678163837252 2.5318017675571722 -3.959682881337237 2.5145409191404875 -3.959682881337237 L 2.31720743589028 -3.959682881337237 C 2.2999465874735954 -3.959682881337237 2.29504823859859 -3.9737559154066964 2.3062444645986018 -3.991016763823381 L 2.43437905104318 -4.188272495504144 C 2.445653028612637 -4.205533343920829 2.4687452447376614 -4.219606377990289 2.486006093154346 -4.219606377990289 L 2.6832618248351094 -4.219606377990289 C 2.700600424821239 -4.219606377990289 2.7054987736962435 -4.205533343920829 2.694224796126788 -4.188272495504144" fill="#423e3f" transform="matrix(1,0,0,1,0,0)" fill-rule="nonzero"></path></g><g clip-path="url(#caf7a00cc-cbec-4f60-9aac-c30f7ef33fdbeff2a7c1-74c3-4e04-9b26-c11f5f96f2d3)"><path d=" M 2.915661265904798 -4.523226256671164 L 3.0031317815298904 -4.3884827868238 C 3.014405759099347 -4.371221938407115 3.009507410224341 -4.3572266559071 2.992168810238212 -4.3572266559071 L 2.7949130785574487 -4.3572266559071 C 2.777652230140764 -4.3572266559071 2.7545600140157402 -4.371221938407115 2.7432860364462837 -4.3884827868238 L 2.6422867477378436 -4.523226256671164 L 0.9859450638611007 -4.523226256671164 L 1.0734155794861926 -4.3884827868238 C 1.0846895570556487 -4.371221938407115 1.0797912081806438 -4.3572266559071 1.0624526081945145 -4.3572266559071 L 0.8651968765137514 -4.3572266559071 C 0.8479360280970667 -4.3572266559071 0.8248438119720425 -4.371221938407115 0.8135698344025859 -4.3884827868238 L 0.726099318777494 -4.523226256671164 L 0.552868822055089 -4.523226256671164 L 1.940423330362105 -2.386613128335582 L 2.1136538270845096 -2.386613128335582 L 2.0386235625705416 -2.5020742089607033 C 2.02742733657053 -2.5193350573773885 2.032325685445535 -2.533330339877403 2.04958653386222 -2.533330339877403 L 2.2469200171124273 -2.533330339877403 C 2.264180865529112 -2.533330339877403 2.2872730816541367 -2.5193350573773885 2.2984693076541483 -2.5020742089607033 L 2.3734995721681162 -2.386613128335582 L 4.043370029128207 -2.386613128335582 L 3.968339764614239 -2.5020742089607033 C 3.9571435386142273 -2.5193350573773885 3.9620418874892334 -2.533330339877403 3.979302735905917 -2.533330339877403 L 4.1766362191561255 -2.533330339877403 C 4.193897067572809 -2.533330339877403 4.216989283697834 -2.5193350573773885 4.2281855096978465 -2.5020742089607033 L 4.3032157742118144 -2.386613128335582 L 4.4812668682397785 -2.386613128335582 L 3.0937123599327636 -4.523226256671164 Z M 2.1560284324317767 -2.7214891379331565 C 2.1672246584317882 -2.7042282895164718 2.162326309556783 -2.690233007016457 2.1449877095706533 -2.690233007016457 L 1.9477319778898907 -2.690233007016457 C 1.930471129473206 -2.690233007016457 1.9073789133481813 -2.7042282895164718 1.8961049357787256 -2.7214891379331565 L 1.7679703493341459 -2.918822621183364 C 1.7567741233341343 -2.9360834696000495 1.7616724722091395 -2.950078752100064 1.7789333206258247 -2.950078752100064 L 1.976266803876032 -2.950078752100064 C 1.9935276522927168 -2.950078752100064 2.0166198684177408 -2.9360834696000495 2.0278938459871974 -2.918822621183364 Z M 1.8853752191953805 -3.138237550155817 C 1.8965714451953926 -3.1209767017391323 1.8916730963203874 -3.106981419239118 1.8744122479037026 -3.106981419239118 L 1.6770787646534948 -3.106981419239118 C 1.6598179162368096 -3.106981419239118 1.6367257001117854 -3.1209767017391323 1.6255294741117738 -3.138237550155817 L 1.4973948876671945 -3.335571033406025 C 1.486120910097738 -3.3528318818227096 1.4910192589727436 -3.3668271643227246 1.5083578589588729 -3.3668271643227246 L 1.7056135906396357 -3.3668271643227246 C 1.7228744390563204 -3.3668271643227246 1.7460444067507888 -3.3528318818227096 1.7572406327508012 -3.335571033406025 Z M 1.6147220059589846 -3.554985962378478 C 1.6259182319589962 -3.5377251139617933 1.621019883083991 -3.523729831461779 1.6037590346673067 -3.523729831461779 L 1.406425551417099 -3.523729831461779 C 1.3891647030004137 -3.523729831461779 1.36607248687539 -3.5377251139617933 1.354876260875378 -3.554985962378478 L 1.2267416744307986 -3.752319445628686 C 1.215545448430787 -3.7695802940453706 1.2204437973057922 -3.7835755765453856 1.237704645722477 -3.7835755765453856 L 1.4349603774032402 -3.7835755765453856 C 1.452298977389369 -3.7835755765453856 1.4753911935143933 -3.7695802940453706 1.4865874195144058 -3.752319445628686 Z M 1.3440687927225887 -3.971734374601139 C 1.3553427702920449 -3.954473526184454 1.3503666698475951 -3.9404782436844394 1.3331058214309104 -3.9404782436844394 L 1.1358500897501476 -3.9404782436844394 C 1.1185114897640183 -3.9404782436844394 1.0954192736389938 -3.954473526184454 1.0842230476389818 -3.971734374601139 L 0.9560884611944027 -4.1690678578513465 C 0.9448922351943911 -4.186328706268031 0.9497905840693961 -4.200323988768046 0.9670514324860808 -4.200323988768046 L 1.1643849157362884 -4.200323988768046 C 1.1816457641529736 -4.200323988768046 1.2047379802779974 -4.186328706268031 1.2159342062780094 -4.1690678578513465 Z M 4.08566688290603 -2.7214891379331565 C 4.0969408604754864 -2.7042282895164718 4.092042511600481 -2.690233007016457 4.0747039116143515 -2.690233007016457 L 3.8774481799335883 -2.690233007016457 C 3.8601873315169035 -2.690233007016457 3.837095115391879 -2.7042282895164718 3.8258211378224223 -2.7214891379331565 L 3.697686551377843 -2.918822621183364 C 3.6864903253778323 -2.9360834696000495 3.6913886742528375 -2.950078752100064 3.708649522669522 -2.950078752100064 L 3.9059830059197296 -2.950078752100064 C 3.9232438543364143 -2.950078752100064 3.946336070461438 -2.9360834696000495 3.9576100480308956 -2.918822621183364 Z M 3.815091421239078 -3.138237550155817 C 3.8262876472390897 -3.1209767017391323 3.8213892983640845 -3.106981419239118 3.8041284499473997 -3.106981419239118 L 3.6067949666971924 -3.106981419239118 C 3.5895341182805076 -3.106981419239118 3.566441902155483 -3.1209767017391323 3.5552456761554714 -3.138237550155817 L 3.427111089710892 -3.335571033406025 C 3.4158371121414355 -3.3528318818227096 3.4207354610164407 -3.3668271643227246 3.4380740610025704 -3.3668271643227246 L 3.6353297926833337 -3.3668271643227246 C 3.6525906411000184 -3.3668271643227246 3.675682857225042 -3.3528318818227096 3.6869568347944988 -3.335571033406025 Z M 3.544438208002682 -3.554985962378478 C 3.5556344340026946 -3.5377251139617933 3.5507360851276886 -3.523729831461779 3.5334752367110047 -3.523729831461779 L 3.3361417534607964 -3.523729831461779 C 3.3188809050441117 -3.523729831461779 3.295788688919087 -3.5377251139617933 3.2845924629190755 -3.554985962378478 L 3.156457876474496 -3.752319445628686 C 3.1451838989050396 -3.7695802940453706 3.1501599993494898 -3.7835755765453856 3.1674208477661745 -3.7835755765453856 L 3.3646765794469378 -3.7835755765453856 C 3.3820151794330666 -3.7835755765453856 3.4051073955580913 -3.7695802940453706 3.416303621558103 -3.752319445628686 Z M 3.2737849947662863 -3.971734374601139 C 3.284981220766298 -3.954473526184454 3.2800828718912935 -3.9404782436844394 3.262822023474608 -3.9404782436844394 L 3.0655662917938447 -3.9404782436844394 C 3.048227691807716 -3.9404782436844394 3.025135475682691 -3.954473526184454 3.0139392496826796 -3.971734374601139 L 2.8858046632381003 -4.1690678578513465 C 2.874608437238088 -4.186328706268031 2.879506786113094 -4.200323988768046 2.8967676345297777 -4.200323988768046 L 3.094101117779986 -4.200323988768046 C 3.1113619661966707 -4.200323988768046 3.1344541823216945 -4.186328706268031 3.145650408321707 -4.1690678578513465 Z" fill="#f89c2a" transform="matrix(1,0,0,1,0,0)" fill-rule="nonzero"></path></g><g clip-path="url(#caf7a00cc-cbec-4f60-9aac-c30f7ef33fdbeff2a7c1-74c3-4e04-9b26-c11f5f96f2d3)"><path d=" M 3.184526193043971 -0.6613058023615435 L 3.1349984433078077 -0.5849537611670188 C 3.123724465738351 -0.5676929127503341 3.1006322496133265 -0.5536976302503192 3.0833714011966418 -0.5536976302503192 L 2.8860379179464344 -0.5536976302503192 C 2.8687770695297488 -0.5536976302503192 2.8638787206547445 -0.5676929127503341 2.875074946654756 -0.5849537611670188 L 3.0032095330993354 -0.7822872444172266 C 3.014483510668792 -0.7995480928339109 3.0375757267938157 -0.8135433753339258 3.0548365752105004 -0.8135433753339258 L 3.0902135393077605 -0.8135433753339258 L 2.2183074395568427 -2.220691279140962 L 2.0388568172788757 -2.220691279140962 C 2.021595968862191 -2.220691279140962 2.0166976199871858 -2.234686561640977 2.0278938459871982 -2.251947410057662 L 2.115442113181734 -2.386690879905026 L 1.9373910191537693 -2.386690879905026 L 1.4100021236115479 -1.5746534886263932 L 1.32758546000035 -1.4476851757234823 L 1.4799785361116211 -1.2302917875565869 L 1.593029318083962 -1.2302917875565869 C 1.6102901665006477 -1.2302917875565869 1.6152662669450975 -1.216296505056572 1.6039922893756409 -1.1990356566398872 L 1.5549310490561445 -1.1233833795703632 L 2.167146906862344 -0.2500777515694441 L 2.6576038069184165 -0.2500777515694441 L 2.7325563198629395 -0.3655388321945656 C 2.743830297432395 -0.38279968061125036 2.76692251355742 -0.3967949631112653 2.7841833619741045 -0.3967949631112653 L 2.981516845224312 -0.3967949631112653 C 2.9987776936409976 -0.3967949631112653 3.003676042516002 -0.38279968061125036 2.992479816515991 -0.3655388321945656 L 2.917449552002023 -0.2500777515694441 L 3.090680048724428 -0.2500777515694441 L 3.2084736764328845 -0.43139441151407976 L 3.269119900599615 -0.5247740464169555 Z M 1.8746455026120363 -1.6157840688625478 L 1.7465109161674575 -1.4184505856123404 C 1.7353146901674454 -1.4011897371956556 1.7122224740424212 -1.3871944546956412 1.6949616256257365 -1.3871944546956412 L 1.4976281423755287 -1.3871944546956412 C 1.4803672939588435 -1.3871944546956412 1.4754689450838387 -1.4011897371956556 1.4866651710838503 -1.4184505856123404 L 1.6147997575284296 -1.6157840688625478 C 1.6259959835284417 -1.6330449172792325 1.6490881996534659 -1.6470401997792474 1.6663490480701506 -1.6470401997792474 L 1.8636825313203584 -1.6470401997792474 C 1.8809433797370436 -1.6470401997792474 1.8858417286120484 -1.6330449172792325 1.8746455026120363 -1.6157840688625478 M 2.1452987158484325 -2.0325324810852083 L 2.017164129403853 -1.835198997835001 C 2.0059679034038416 -1.8179381494183162 1.9827979357093726 -1.8039428669183017 1.9655370872926874 -1.8039428669183017 L 1.7682813556119246 -1.8039428669183017 C 1.7510205071952398 -1.8039428669183017 1.74604440675079 -1.8179381494183162 1.7573183843202467 -1.835198997835001 L 1.885452970764826 -2.0325324810852083 C 1.8966491967648371 -2.049793329501894 1.9197414128898618 -2.063788612001909 1.937002261306547 -2.063788612001909 L 2.134335744556754 -2.063788612001909 C 2.151596592973439 -2.063788612001909 2.156494941848444 -2.049793329501894 2.1452987158484325 -2.0325324810852083" fill="#a7a5a6" transform="matrix(1,0,0,1,0,0)" fill-rule="nonzero"></path></g><g clip-path="url(#SvgjsClipPath1000eff2a7c1-74c3-4e04-9b26-c11f5f96f2d3)"><path d=" M 0.5498788577617817 -0.25 L 1.327627806915378 -1.4476851757234823 L 1.3263060302348209 -1.449628964959595 Z" fill="#a7a5a6" transform="matrix(1,0,0,1,0,0)" fill-rule="nonzero"></path></g><g clip-path="url(#daf7a00cc-cbec-4f60-9aac-c30f7ef33fdbeff2a7c1-74c3-4e04-9b26-c11f5f96f2d3)"><path d=" M 1.475857702931061 -1.0017021733896794 C 1.464661476931049 -0.9844413249729946 1.4415692608060249 -0.9704460424729797 1.4242306608198951 -0.9704460424729797 L 1.2269749291391323 -0.9704460424729797 C 1.2097140807224476 -0.9704460424729797 1.2048157318474424 -0.9844413249729946 1.2160119578474544 -1.0017021733896794 L 1.3441465442920333 -1.1990356566398872 C 1.3553427702920449 -1.216296505056572 1.3784349864170695 -1.2302917875565869 1.3956958348337543 -1.2302917875565869 L 1.4799785361116207 -1.2302917875565869 L 1.3275854600003496 -1.4476851757234823 L 0.5497587592773083 -0.25 L 0.7278876048747183 -0.25 L 0.8028401178192415 -0.3655388321945656 C 0.8140363438192533 -0.38279968061125036 0.8372063115137223 -0.3967949631112653 0.8544671599304072 -0.3967949631112653 L 1.05172289161117 -0.3967949631112653 C 1.0690614915972996 -0.3967949631112653 1.0739598404723047 -0.38279968061125036 1.0626858629028484 -0.3655388321945656 L 0.9877333499583252 -0.25 L 2.167069155292899 -0.25 L 1.5548532974866995 -1.1233833795703632 Z M 1.333339076139244 -0.7822872444172266 L 1.2052044896946652 -0.5849537611670184 C 1.1940082636946532 -0.5676929127503341 1.170916047569629 -0.5536976302503192 1.153655199152944 -0.5536976302503192 L 0.9563217159027362 -0.5536976302503192 C 0.9390608674860517 -0.5536976302503192 0.9341625186110463 -0.5676929127503341 0.9453587446110581 -0.5849537611670184 L 1.0734933310556374 -0.7822872444172262 C 1.0846895570556492 -0.7995480928339109 1.1077817731806736 -0.8135433753339258 1.1251203731668027 -0.8135433753339258 L 1.3223761048475662 -0.8135433753339258 C 1.339636953264251 -0.8135433753339258 1.344535302139256 -0.7995480928339109 1.333339076139244 -0.7822872444172262" fill="#939192" transform="matrix(1,0,0,1,0,0)" fill-rule="nonzero"></path></g></g></g><defs><clipPath id="SvgjsClipPath1001"><path d=" M -0.8385732647241524 -4.523236939763513 h 5.31984013296393 v 4.273236939763513 h -5.31984013296393 Z"></path></clipPath><clipPath id="aaf7a00cc-cbec-4f60-9aac-c30f7ef33fdbeff2a7c1-74c3-4e04-9b26-c11f5f96f2d3"><path d=" M -0.8385732647241524 -0.25 L 4.481266868239779 -0.25 L 4.481266868239779 -4.523304008240607 L -0.8385732647241524 -4.523304008240607 Z"></path></clipPath><clipPath id="SvgjsClipPath1000eff2a7c1-74c3-4e04-9b26-c11f5f96f2d3"><path d=" M -0.8385732647241524 -4.523236939763513 L 4.481266868239778 -4.523236939763513 L 4.481266868239778 -0.25 L -0.8385732647241524 -0.25 Z"></path></clipPath><clipPath id="baf7a00cc-cbec-4f60-9aac-c30f7ef33fdbeff2a7c1-74c3-4e04-9b26-c11f5f96f2d3"><path d=" M -0.8385732647241524 -0.25 L 4.481266868239779 -0.25 L 4.481266868239779 -4.523304008240607 L -0.8385732647241524 -4.523304008240607 Z"></path></clipPath><clipPath id="caf7a00cc-cbec-4f60-9aac-c30f7ef33fdbeff2a7c1-74c3-4e04-9b26-c11f5f96f2d3"><path d=" M -0.8385732647241524 -0.25 L 4.481266868239779 -0.25 L 4.481266868239779 -4.523304008240607 L -0.8385732647241524 -4.523304008240607 Z"></path></clipPath><clipPath id="daf7a00cc-cbec-4f60-9aac-c30f7ef33fdbeff2a7c1-74c3-4e04-9b26-c11f5f96f2d3"><path d=" M -0.8385732647241524 -0.25 L 4.481266868239779 -0.25 L 4.481266868239779 -4.523304008240607 L -0.8385732647241524 -4.523304008240607 Z"></path></clipPath></defs></svg>