<svg xmlns="http://www.w3.org/2000/svg" version="1.1" xmlns:xlink="http://www.w3.org/1999/xlink" xmlns:svgjs="http://svgjs.dev/svgjs" viewBox="0 0 12.780348563404036 13.148061898842968"><g transform="matrix(1,0,0,1,1.080220058069206,8.717929340773763)"><g><path d=" M 0.3165 0.546 L 0.9450000000000001 0.546 L 0.9450000000000001 1.068 L 1.0815000000000001 1.068 L 1.0815000000000001 0.018000000000000016 L 0.9450000000000001 0.018000000000000016 L 0.9450000000000001 0.4770000000000001 L 0.3165 0.4770000000000001 L 0.3165 0.018000000000000016 L 0.18 0.018000000000000016 L 0.18 1.068 L 0.3165 1.068 L 0.3165 0.546 M 1.351505126953125 0.543 Q 1.351505126953125 0.627 1.3837551269531252 0.7222500000000001 Q 1.416005126953125 0.8175000000000001 1.485005126953125 0.8985000000000001 Q 1.5540051269531252 0.9795 1.660505126953125 1.03275 Q 1.767005126953125 1.086 1.9155051269531251 1.086 Q 2.016005126953125 1.086 2.097755126953125 1.06125 Q 2.179505126953125 1.0365 2.244755126953125 0.9945 Q 2.310005126953125 0.9525 2.3580051269531253 0.89775 Q 2.406005126953125 0.8430000000000001 2.436755126953125 0.7822500000000001 Q 2.4675051269531254 0.7215 2.483255126953125 0.66 Q 2.499005126953125 0.5985 2.499005126953125 0.543 Q 2.499005126953125 0.4590000000000001 2.4645051269531253 0.36375 Q 2.430005126953125 0.26850000000000007 2.3580051269531253 0.1875 Q 2.286005126953125 0.10650000000000004 2.175755126953125 0.05325000000000002 Q 2.0655051269531253 0 1.9155051269531251 0 Q 1.767005126953125 0 1.660505126953125 0.05249999999999999 Q 1.5540051269531252 0.1050000000000001 1.485005126953125 0.18525000000000003 Q 1.416005126953125 0.26550000000000007 1.3837551269531252 0.36150000000000004 Q 1.351505126953125 0.4575 1.351505126953125 0.543 M 1.498505126953125 0.543 Q 1.498505126953125 0.43800000000000006 1.5307551269531252 0.35025000000000006 Q 1.563005126953125 0.26250000000000007 1.6192551269531252 0.1995 Q 1.6755051269531251 0.13650000000000007 1.7520051269531252 0.10125000000000006 Q 1.8285051269531252 0.06600000000000006 1.918505126953125 0.06600000000000006 Q 2.0070051269531253 0.06600000000000006 2.085755126953125 0.10125000000000006 Q 2.164505126953125 0.13650000000000007 2.223755126953125 0.1995 Q 2.283005126953125 0.26250000000000007 2.317505126953125 0.35025000000000006 Q 2.3520051269531255 0.43800000000000006 2.3520051269531255 0.543 Q 2.3520051269531255 0.6480000000000001 2.317505126953125 0.7357500000000001 Q 2.283005126953125 0.8235000000000001 2.223755126953125 0.8865000000000001 Q 2.164505126953125 0.9495 2.085755126953125 0.98475 Q 2.0070051269531253 1.02 1.918505126953125 1.02 Q 1.8285051269531252 1.02 1.7520051269531252 0.98475 Q 1.6755051269531251 0.9495 1.6192551269531252 0.8865000000000001 Q 1.563005126953125 0.8235000000000001 1.5307551269531252 0.7357500000000001 Q 1.498505126953125 0.6480000000000001 1.498505126953125 0.543 M 2.7689904785156254 1.068 L 2.7689904785156254 0.018000000000000016 L 2.9054904785156253 0.018000000000000016 L 2.9054904785156253 0.9855 L 3.4469904785156253 0.9855 L 3.4469904785156253 1.068 L 2.7689904785156254 1.068 M 3.6869750976562505 1.068 L 3.6869750976562505 0.018000000000000016 L 3.8234750976562504 0.018000000000000016 L 3.8234750976562504 0.9855 L 4.3649750976562505 0.9855 L 4.3649750976562505 1.068 L 3.6869750976562505 1.068 M 4.319996337890625 0.018000000000000016 L 4.682996337890626 0.6705000000000001 L 4.682996337890626 1.068 L 4.819496337890626 1.068 L 4.819496337890626 0.657 L 5.1884963378906255 0.018000000000000016 L 5.107496337890625 0.018000000000000016 L 4.786496337890625 0.5715000000000001 L 4.780496337890625 0.5715000000000001 L 4.474496337890626 0.018000000000000016 L 4.319996337890625 0.018000000000000016 M 5.2934619140625 0.018000000000000016 L 5.6654619140625 1.068 L 5.7554619140625 1.068 L 6.0419619140625 0.24750000000000005 L 6.0494619140625 0.24750000000000005 L 6.3269619140625 1.068 L 6.4154619140625 1.068 L 6.7874619140625 0.018000000000000016 L 6.7184619140625 0.018000000000000016 L 6.407961914062501 0.894 L 6.4019619140625 0.894 L 6.1094619140625 0.018000000000000016 L 6.0449619140625 0.018000000000000016 L 5.7464619140625 0.8895000000000001 L 5.7404619140625 0.8895000000000001 L 5.4314619140625 0.018000000000000016 L 5.2934619140625 0.018000000000000016 M 6.922415771484375 0.543 Q 6.922415771484375 0.627 6.9546657714843745 0.7222500000000001 Q 6.986915771484375 0.8175000000000001 7.055915771484375 0.8985000000000001 Q 7.124915771484375 0.9795 7.231415771484375 1.03275 Q 7.337915771484375 1.086 7.486415771484375 1.086 Q 7.5869157714843745 1.086 7.668665771484375 1.06125 Q 7.750415771484375 1.0365 7.815665771484375 0.9945 Q 7.880915771484375 0.9525 7.928915771484375 0.89775 Q 7.976915771484375 0.8430000000000001 8.007665771484374 0.7822500000000001 Q 8.038415771484376 0.7215 8.054165771484374 0.66 Q 8.069915771484375 0.5985 8.069915771484375 0.543 Q 8.069915771484375 0.4590000000000001 8.035415771484375 0.36375 Q 8.000915771484374 0.26850000000000007 7.928915771484375 0.1875 Q 7.856915771484375 0.10650000000000004 7.746665771484375 0.05325000000000002 Q 7.636415771484375 0 7.486415771484375 0 Q 7.337915771484375 0 7.231415771484375 0.05249999999999999 Q 7.124915771484375 0.1050000000000001 7.055915771484375 0.18525000000000003 Q 6.986915771484375 0.26550000000000007 6.9546657714843745 0.36150000000000004 Q 6.922415771484375 0.4575 6.922415771484375 0.543 M 7.069415771484375 0.543 Q 7.069415771484375 0.43800000000000006 7.101665771484375 0.35025000000000006 Q 7.133915771484375 0.26250000000000007 7.1901657714843745 0.1995 Q 7.246415771484375 0.13650000000000007 7.322915771484375 0.10125000000000006 Q 7.3994157714843745 0.06600000000000006 7.489415771484375 0.06600000000000006 Q 7.577915771484375 0.06600000000000006 7.656665771484375 0.10125000000000006 Q 7.735415771484375 0.13650000000000007 7.794665771484375 0.1995 Q 7.853915771484375 0.26250000000000007 7.888415771484375 0.35025000000000006 Q 7.922915771484375 0.43800000000000006 7.922915771484375 0.543 Q 7.922915771484375 0.6480000000000001 7.888415771484375 0.7357500000000001 Q 7.853915771484375 0.8235000000000001 7.794665771484375 0.8865000000000001 Q 7.735415771484375 0.9495 7.656665771484375 0.98475 Q 7.577915771484375 1.02 7.489415771484375 1.02 Q 7.3994157714843745 1.02 7.322915771484375 0.98475 Q 7.246415771484375 0.9495 7.1901657714843745 0.8865000000000001 Q 7.133915771484375 0.8235000000000001 7.101665771484375 0.7357500000000001 Q 7.069415771484375 0.6480000000000001 7.069415771484375 0.543 M 8.234901123046875 0.543 Q 8.234901123046875 0.627 8.267151123046876 0.7222500000000001 Q 8.299401123046875 0.8175000000000001 8.368401123046876 0.8985000000000001 Q 8.437401123046875 0.9795 8.543901123046876 1.03275 Q 8.650401123046876 1.086 8.798901123046875 1.086 Q 8.899401123046875 1.086 8.981151123046875 1.06125 Q 9.062901123046876 1.0365 9.128151123046875 0.9945 Q 9.193401123046876 0.9525 9.241401123046876 0.89775 Q 9.289401123046876 0.8430000000000001 9.320151123046875 0.7822500000000001 Q 9.350901123046876 0.7215 9.366651123046875 0.66 Q 9.382401123046876 0.5985 9.382401123046876 0.543 Q 9.382401123046876 0.4590000000000001 9.347901123046876 0.36375 Q 9.313401123046875 0.26850000000000007 9.241401123046876 0.1875 Q 9.169401123046875 0.10650000000000004 9.059151123046876 0.05325000000000002 Q 8.948901123046875 0 8.798901123046875 0 Q 8.650401123046876 0 8.543901123046876 0.05249999999999999 Q 8.437401123046875 0.1050000000000001 8.368401123046876 0.18525000000000003 Q 8.299401123046875 0.26550000000000007 8.267151123046876 0.36150000000000004 Q 8.234901123046875 0.4575 8.234901123046875 0.543 M 8.381901123046875 0.543 Q 8.381901123046875 0.43800000000000006 8.414151123046876 0.35025000000000006 Q 8.446401123046876 0.26250000000000007 8.502651123046876 0.1995 Q 8.558901123046876 0.13650000000000007 8.635401123046876 0.10125000000000006 Q 8.711901123046875 0.06600000000000006 8.801901123046875 0.06600000000000006 Q 8.890401123046875 0.06600000000000006 8.969151123046876 0.10125000000000006 Q 9.047901123046875 0.13650000000000007 9.107151123046876 0.1995 Q 9.166401123046874 0.26250000000000007 9.200901123046876 0.35025000000000006 Q 9.235401123046875 0.43800000000000006 9.235401123046875 0.543 Q 9.235401123046875 0.6480000000000001 9.200901123046876 0.7357500000000001 Q 9.166401123046874 0.8235000000000001 9.107151123046876 0.8865000000000001 Q 9.047901123046875 0.9495 8.969151123046876 0.98475 Q 8.890401123046875 1.02 8.801901123046875 1.02 Q 8.711901123046875 1.02 8.635401123046876 0.98475 Q 8.558901123046876 0.9495 8.502651123046876 0.8865000000000001 Q 8.446401123046876 0.8235000000000001 8.414151123046876 0.7357500000000001 Q 8.381901123046875 0.6480000000000001 8.381901123046875 0.543 M 9.667386474609376 1.068 L 9.667386474609376 0.018000000000000016 L 10.012386474609375 0.018000000000000016 Q 10.136886474609376 0.018000000000000016 10.240386474609377 0.05774999999999997 Q 10.343886474609375 0.09750000000000003 10.418136474609376 0.16725 Q 10.492386474609376 0.237 10.533636474609375 0.3330000000000001 Q 10.574886474609375 0.42900000000000005 10.574886474609375 0.54 Q 10.574886474609375 0.6555 10.532136474609375 0.7522500000000001 Q 10.489386474609375 0.8490000000000001 10.415136474609376 0.9195000000000001 Q 10.340886474609377 0.9900000000000001 10.241886474609377 1.0290000000000001 Q 10.142886474609377 1.068 10.030386474609376 1.068 L 9.667386474609376 1.068 M 9.803886474609376 1.002 L 9.968886474609375 1.002 Q 10.091886474609376 1.002 10.178136474609376 0.9607500000000001 Q 10.264386474609376 0.9195000000000001 10.319886474609376 0.8535 Q 10.375386474609376 0.7875000000000001 10.400886474609376 0.7057500000000001 Q 10.426386474609377 0.6240000000000001 10.426386474609377 0.543 Q 10.426386474609377 0.45300000000000007 10.396386474609375 0.36975 Q 10.366386474609376 0.2865000000000001 10.308636474609376 0.22275 Q 10.250886474609375 0.15900000000000003 10.165386474609376 0.12150000000000005 Q 10.079886474609376 0.08400000000000007 9.968886474609375 0.08400000000000007 L 9.803886474609376 0.08400000000000007 L 9.803886474609376 1.002 M 2.457718505859375 2.4539999999999997 L 2.8342185058593747 2.4539999999999997 Q 2.934718505859375 2.4539999999999997 3.003718505859375 2.4277499999999996 Q 3.072718505859375 2.4014999999999995 3.1147185058593747 2.3594999999999997 Q 3.156718505859375 2.3175 3.1754685058593752 2.2642499999999997 Q 3.194218505859375 2.211 3.194218505859375 2.1569999999999996 Q 3.194218505859375 2.0715 3.157468505859375 2.0204999999999997 Q 3.120718505859375 1.9694999999999998 3.069718505859375 1.9424999999999997 Q 3.018718505859375 1.9154999999999998 2.9647185058593752 1.9064999999999999 Q 2.910718505859375 1.8974999999999997 2.877718505859375 1.8959999999999997 L 2.877718505859375 1.8899999999999997 Q 2.930218505859375 1.8899999999999997 2.976718505859375 1.8697499999999998 Q 3.023218505859375 1.8494999999999997 3.0584685058593752 1.8172499999999996 Q 3.093718505859375 1.7849999999999997 3.1147185058593747 1.7422499999999999 Q 3.135718505859375 1.6994999999999996 3.135718505859375 1.6514999999999997 Q 3.135718505859375 1.6094999999999997 3.117718505859375 1.5659999999999998 Q 3.099718505859375 1.5224999999999997 3.062968505859375 1.4864999999999997 Q 3.026218505859375 1.4504999999999997 2.968468505859375 1.4272499999999997 Q 2.910718505859375 1.4039999999999997 2.832718505859375 1.4039999999999997 L 2.457718505859375 1.4039999999999997 L 2.457718505859375 2.4539999999999997 M 2.594218505859375 2.388 L 2.594218505859375 1.9289999999999998 L 2.759218505859375 1.9289999999999998 Q 2.832718505859375 1.9289999999999998 2.886718505859375 1.9484999999999997 Q 2.940718505859375 1.9679999999999997 2.975968505859375 2.001 Q 3.0112185058593752 2.034 3.028468505859375 2.0774999999999997 Q 3.0457185058593748 2.1209999999999996 3.0457185058593748 2.1689999999999996 Q 3.0457185058593748 2.2215 3.026968505859375 2.2619999999999996 Q 3.008218505859375 2.3024999999999998 2.976718505859375 2.3309999999999995 Q 2.945218505859375 2.3594999999999997 2.902468505859375 2.37375 Q 2.859718505859375 2.388 2.8117185058593748 2.388 L 2.594218505859375 2.388 M 2.594218505859375 1.8629999999999998 L 2.594218505859375 1.4699999999999998 L 2.777218505859375 1.4699999999999998 Q 2.835718505859375 1.4699999999999998 2.876968505859375 1.4864999999999997 Q 2.918218505859375 1.5029999999999997 2.944468505859375 1.5299999999999998 Q 2.970718505859375 1.5569999999999997 2.982718505859375 1.5914999999999997 Q 2.994718505859375 1.6259999999999997 2.994718505859375 1.6604999999999999 Q 2.994718505859375 1.7039999999999997 2.977468505859375 1.7414999999999998 Q 2.960218505859375 1.7789999999999997 2.929468505859375 1.8059999999999996 Q 2.898718505859375 1.8329999999999997 2.858968505859375 1.8479999999999999 Q 2.819218505859375 1.8629999999999998 2.774218505859375 1.8629999999999998 L 2.594218505859375 1.8629999999999998 M 3.404234619140625 1.4039999999999997 L 3.404234619140625 2.0489999999999995 Q 3.404234619140625 2.1104999999999996 3.416234619140625 2.1847499999999997 Q 3.428234619140625 2.259 3.473234619140625 2.3227499999999996 Q 3.518234619140625 2.3865 3.6067346191406253 2.4292499999999997 Q 3.695234619140625 2.4719999999999995 3.848234619140625 2.4719999999999995 Q 3.9442346191406252 2.4719999999999995 4.018484619140625 2.4419999999999997 Q 4.092734619140625 2.412 4.142984619140625 2.3594999999999997 Q 4.193234619140625 2.307 4.218734619140625 2.2372499999999995 Q 4.2442346191406255 2.1674999999999995 4.2442346191406255 2.0879999999999996 L 4.2442346191406255 1.4039999999999997 L 4.178234619140625 1.4039999999999997 L 4.178234619140625 2.0384999999999995 Q 4.178234619140625 2.0715 4.176734619140625 2.10525 Q 4.175234619140625 2.139 4.167734619140625 2.1727499999999997 Q 4.160234619140625 2.2064999999999997 4.144484619140625 2.2394999999999996 Q 4.128734619140625 2.2725 4.098734619140625 2.3055 Q 4.044734619140625 2.364 3.977234619140625 2.385 Q 3.9097346191406253 2.4059999999999997 3.836234619140625 2.4059999999999997 Q 3.773234619140625 2.4059999999999997 3.7244846191406253 2.3865 Q 3.6757346191406253 2.3669999999999995 3.632234619140625 2.328 Q 3.597734619140625 2.2979999999999996 3.579734619140625 2.268 Q 3.561734619140625 2.2379999999999995 3.552734619140625 2.2087499999999998 Q 3.543734619140625 2.1794999999999995 3.542234619140625 2.1494999999999997 Q 3.540734619140625 2.1194999999999995 3.540734619140625 2.0894999999999997 L 3.540734619140625 1.4039999999999997 L 3.404234619140625 1.4039999999999997 M 4.4346906738281255 2.1885 Q 4.437690673828126 2.2529999999999997 4.468440673828125 2.3055 Q 4.499190673828125 2.3579999999999997 4.552440673828126 2.3947499999999997 Q 4.605690673828125 2.4314999999999998 4.677690673828125 2.4517499999999997 Q 4.749690673828125 2.4719999999999995 4.835190673828126 2.4719999999999995 Q 4.922190673828125 2.4719999999999995 4.991940673828125 2.4509999999999996 Q 5.061690673828125 2.4299999999999997 5.111190673828125 2.3909999999999996 Q 5.1606906738281255 2.352 5.187690673828126 2.2964999999999995 Q 5.214690673828125 2.2409999999999997 5.214690673828125 2.1734999999999998 Q 5.214690673828125 2.0805 5.168190673828125 2.0212499999999998 Q 5.121690673828125 1.9619999999999997 5.051940673828125 1.9222499999999996 Q 4.982190673828125 1.8824999999999998 4.900440673828125 1.8554999999999997 Q 4.818690673828125 1.8284999999999996 4.748940673828125 1.7984999999999998 Q 4.679190673828125 1.7684999999999997 4.632690673828125 1.7294999999999998 Q 4.586190673828125 1.6904999999999997 4.586190673828125 1.6259999999999997 Q 4.586190673828125 1.5899999999999999 4.601940673828125 1.5584999999999996 Q 4.617690673828125 1.5269999999999997 4.648440673828125 1.5037499999999997 Q 4.679190673828125 1.4804999999999997 4.724190673828125 1.4662499999999996 Q 4.769190673828125 1.4519999999999997 4.827690673828125 1.4519999999999997 Q 4.9251906738281255 1.4519999999999997 4.993440673828125 1.4932499999999997 Q 5.061690673828125 1.5344999999999998 5.073690673828125 1.6229999999999998 L 5.175690673828125 1.6229999999999998 Q 5.166690673828125 1.5674999999999997 5.135190673828125 1.5232499999999998 Q 5.103690673828125 1.4789999999999996 5.055690673828125 1.4482499999999998 Q 5.007690673828125 1.4174999999999998 4.946940673828125 1.4017499999999996 Q 4.886190673828125 1.3859999999999997 4.820190673828125 1.3859999999999997 Q 4.751190673828125 1.3859999999999997 4.688940673828125 1.4039999999999997 Q 4.626690673828125 1.4219999999999997 4.579440673828125 1.4564999999999997 Q 4.532190673828125 1.4909999999999997 4.5044406738281255 1.5434999999999999 Q 4.476690673828125 1.5959999999999996 4.476690673828125 1.6634999999999998 Q 4.476690673828125 1.7519999999999998 4.521690673828125 1.8059999999999996 Q 4.566690673828125 1.8599999999999999 4.634940673828125 1.8959999999999997 Q 4.703190673828125 1.9319999999999997 4.782690673828125 1.9574999999999998 Q 4.862190673828125 1.9829999999999997 4.930440673828125 2.0152499999999995 Q 4.998690673828126 2.0475 5.0436906738281255 2.094 Q 5.0886906738281255 2.1405 5.0886906738281255 2.2184999999999997 Q 5.0886906738281255 2.316 5.017440673828125 2.3609999999999998 Q 4.946190673828125 2.4059999999999997 4.827690673828125 2.4059999999999997 Q 4.733190673828125 2.4059999999999997 4.676190673828125 2.3812499999999996 Q 4.619190673828125 2.3564999999999996 4.589190673828125 2.3219999999999996 Q 4.559190673828125 2.2874999999999996 4.548690673828125 2.2507499999999996 Q 4.538190673828125 2.2139999999999995 4.536690673828125 2.1885 L 4.4346906738281255 2.1885 M 5.900190673828125 2.4539999999999997 L 5.900190673828125 1.4864999999999997 L 6.302190673828125 1.4864999999999997 L 6.302190673828125 1.4039999999999997 L 5.361690673828125 1.4039999999999997 L 5.361690673828125 1.4864999999999997 L 5.763690673828125 1.4864999999999997 L 5.763690673828125 2.4539999999999997 L 5.900190673828125 2.4539999999999997 M 6.527178955078124 1.4039999999999997 L 6.527178955078124 2.4539999999999997 L 7.205178955078124 2.4539999999999997 L 7.205178955078124 2.3714999999999997 L 6.663678955078124 2.3714999999999997 L 6.663678955078124 1.9319999999999997 L 7.128678955078125 1.9319999999999997 L 7.128678955078125 1.8629999999999998 L 6.663678955078124 1.8629999999999998 L 6.663678955078124 1.4864999999999997 L 7.205178955078124 1.4864999999999997 L 7.205178955078124 1.4039999999999997 L 6.527178955078124 1.4039999999999997 M 7.445163574218749 1.4039999999999997 L 7.445163574218749 2.4539999999999997 L 7.58166357421875 2.4539999999999997 L 7.58166357421875 1.9904999999999997 L 7.6476635742187495 1.9904999999999997 Q 7.689663574218749 1.9904999999999997 7.7174135742187495 1.9979999999999998 Q 7.745163574218749 2.0054999999999996 7.76766357421875 2.0235 Q 7.79016357421875 2.0414999999999996 7.8096635742187495 2.07 Q 7.829163574218749 2.0984999999999996 7.8561635742187494 2.1405 L 7.9746635742187495 2.316 Q 7.9971635742187495 2.3505 8.018913574218749 2.3789999999999996 Q 8.04066357421875 2.4074999999999998 8.066163574218749 2.4277499999999996 Q 8.09166357421875 2.448 8.123913574218749 2.4599999999999995 Q 8.156163574218748 2.4719999999999995 8.20116357421875 2.4719999999999995 Q 8.23416357421875 2.4719999999999995 8.255163574218749 2.469 Q 8.27616357421875 2.4659999999999997 8.29716357421875 2.4539999999999997 L 8.29716357421875 2.3985 Q 8.28966357421875 2.4 8.28216357421875 2.40075 Q 8.27466357421875 2.4014999999999995 8.267163574218749 2.4014999999999995 Q 8.23566357421875 2.4014999999999995 8.211663574218749 2.3924999999999996 Q 8.18766357421875 2.3834999999999997 8.166663574218749 2.3662499999999995 Q 8.14566357421875 2.3489999999999998 8.126163574218749 2.3242499999999997 Q 8.10666357421875 2.2994999999999997 8.08566357421875 2.268 Q 8.022663574218749 2.1765 7.988163574218749 2.1217499999999996 Q 7.95366357421875 2.0669999999999997 7.933413574218749 2.037 Q 7.913163574218749 2.0069999999999997 7.900413574218749 1.9934999999999996 Q 7.887663574218749 1.9799999999999998 7.869663574218749 1.9709999999999996 L 7.854663574218749 1.9634999999999998 L 7.854663574218749 1.9574999999999998 Q 7.9266635742187495 1.9529999999999998 7.97841357421875 1.9259999999999997 Q 8.030163574218749 1.8989999999999996 8.063163574218748 1.8584999999999998 Q 8.09616357421875 1.8179999999999996 8.111163574218748 1.7707499999999996 Q 8.126163574218749 1.7234999999999996 8.126163574218749 1.6784999999999997 Q 8.126163574218749 1.6379999999999997 8.11041357421875 1.5899999999999999 Q 8.09466357421875 1.5419999999999998 8.05641357421875 1.5007499999999996 Q 8.018163574218748 1.4594999999999998 7.9521635742187495 1.4317499999999996 Q 7.886163574218749 1.4039999999999997 7.785663574218749 1.4039999999999997 L 7.445163574218749 1.4039999999999997 M 7.58166357421875 1.4699999999999998 L 7.733163574218749 1.4699999999999998 Q 7.79016357421875 1.4699999999999998 7.83591357421875 1.4864999999999997 Q 7.8816635742187495 1.5029999999999997 7.914663574218749 1.5322499999999997 Q 7.947663574218749 1.5614999999999997 7.964913574218749 1.6019999999999999 Q 7.982163574218749 1.6424999999999996 7.982163574218749 1.6904999999999997 Q 7.982163574218749 1.7309999999999999 7.966413574218749 1.7722499999999997 Q 7.9506635742187495 1.8135 7.919163574218749 1.8472499999999998 Q 7.887663574218749 1.8809999999999998 7.841913574218749 1.9019999999999997 Q 7.796163574218749 1.9229999999999996 7.736163574218749 1.9229999999999996 L 7.58166357421875 1.9229999999999996 L 7.58166357421875 1.4699999999999998" fill="#231f20" fill-rule="nonzero"></path></g><g><path d=" M 1.8479736328125 2.8631624999999996 L 1.8479736328125 3.0589124999999995 L 2.0467236328125002 3.0589124999999995 L 2.0467236328125002 3.1024125 L 1.8479736328125 3.1024125 L 1.8479736328125 3.3011624999999998 L 2.0692236328125 3.3011624999999998 L 2.0692236328125 3.3446624999999996 L 1.7954736328125 3.3446624999999996 L 1.7954736328125 2.8196624999999997 L 2.0692236328125 2.8196624999999997 L 2.0692236328125 2.8631624999999996 L 1.8479736328125 2.8631624999999996 M 2.5754666748046873 3.3446624999999996 L 2.5229666748046875 3.3446624999999996 L 2.232716674804687 2.9036625 L 2.232716674804687 3.3446624999999996 L 2.1802166748046874 3.3446624999999996 L 2.1802166748046874 2.8204124999999998 L 2.232716674804687 2.8204124999999998 L 2.5229666748046875 3.2606624999999996 L 2.5229666748046875 2.8204124999999998 L 2.5754666748046873 2.8204124999999998 L 2.5754666748046873 3.3446624999999996 M 3.0066972656249997 2.8519124999999996 Q 3.068947265625 2.8834124999999995 3.101947265625 2.9426624999999995 Q 3.1349472656249997 3.0019124999999995 3.1349472656249997 3.0836624999999995 Q 3.1349472656249997 3.1646624999999995 3.101947265625 3.2235374999999995 Q 3.068947265625 3.2824124999999995 3.0066972656249997 3.3135375 Q 2.9444472656249996 3.3446624999999996 2.857447265625 3.3446624999999996 L 2.7021972656249997 3.3446624999999996 L 2.7021972656249997 2.8204124999999998 L 2.857447265625 2.8204124999999998 Q 2.9444472656249996 2.8204124999999998 3.0066972656249997 2.8519124999999996 M 3.0243222656249995 3.2437875 Q 3.0816972656249995 3.1864124999999994 3.0816972656249995 3.0836624999999995 Q 3.0816972656249995 2.9801624999999996 3.0243222656249995 2.9220374999999996 Q 2.9669472656249996 2.8639124999999996 2.857447265625 2.8639124999999996 L 2.7546972656249995 2.8639124999999996 L 2.7546972656249995 3.3011624999999998 L 2.857447265625 3.3011624999999998 Q 2.9669472656249996 3.3011624999999998 3.0243222656249995 3.2437875 M 3.2916925048828123 3.3019125 L 3.4799425048828123 3.3019125 L 3.4799425048828123 3.3446624999999996 L 3.2391925048828125 3.3446624999999996 L 3.2391925048828125 2.8204124999999998 L 3.2916925048828123 2.8204124999999998 L 3.2916925048828123 3.3019125 M 3.6149578857421876 2.8631624999999996 L 3.6149578857421876 3.0589124999999995 L 3.813707885742188 3.0589124999999995 L 3.813707885742188 3.1024125 L 3.6149578857421876 3.1024125 L 3.6149578857421876 3.3011624999999998 L 3.836207885742188 3.3011624999999998 L 3.836207885742188 3.3446624999999996 L 3.562457885742188 3.3446624999999996 L 3.562457885742188 2.8196624999999997 L 3.836207885742188 2.8196624999999997 L 3.836207885742188 2.8631624999999996 L 3.6149578857421876 2.8631624999999996 M 4.015075927734375 3.3319124999999996 Q 3.975700927734375 3.3139125 3.953200927734375 3.2816624999999995 Q 3.930700927734375 3.2494124999999996 3.929200927734375 3.2096624999999994 L 3.9847009277343752 3.2096624999999994 Q 3.988450927734375 3.2479124999999995 4.018450927734375 3.2767874999999997 Q 4.048450927734375 3.3056624999999995 4.106200927734375 3.3056624999999995 Q 4.159450927734375 3.3056624999999995 4.1905759277343755 3.2782875 Q 4.221700927734375 3.2509124999999996 4.221700927734375 3.2089125 Q 4.221700927734375 3.1751624999999994 4.204450927734375 3.1545374999999996 Q 4.187200927734375 3.1339124999999997 4.161700927734375 3.1237874999999997 Q 4.136200927734375 3.1136624999999998 4.091200927734375 3.1016624999999998 Q 4.038700927734375 3.0874124999999997 4.007950927734375 3.0739124999999996 Q 3.977200927734375 3.0604124999999995 3.955450927734375 3.0319125 Q 3.933700927734375 3.0034124999999996 3.933700927734375 2.9546624999999995 Q 3.933700927734375 2.9141624999999998 3.954700927734375 2.8822874999999994 Q 3.975700927734375 2.8504124999999996 4.013950927734375 2.8324124999999998 Q 4.052200927734375 2.8144124999999995 4.101700927734375 2.8144124999999995 Q 4.174450927734375 2.8144124999999995 4.219075927734375 2.8500374999999996 Q 4.263700927734375 2.8856624999999996 4.270450927734375 2.9419124999999995 L 4.2134509277343755 2.9419124999999995 Q 4.208200927734375 2.9096624999999996 4.178200927734375 2.8845374999999995 Q 4.148200927734375 2.8594124999999995 4.0972009277343755 2.8594124999999995 Q 4.0499509277343755 2.8594124999999995 4.018450927734375 2.8845374999999995 Q 3.986950927734375 2.9096624999999996 3.986950927734375 2.9531624999999995 Q 3.986950927734375 2.9861625 4.0042009277343755 3.0064124999999997 Q 4.021450927734375 3.0266624999999996 4.047325927734375 3.0371624999999995 Q 4.0732009277343755 3.0476624999999995 4.117450927734375 3.0596624999999995 Q 4.168450927734375 3.0739124999999996 4.199950927734375 3.0877874999999997 Q 4.231450927734375 3.1016624999999998 4.253200927734375 3.1301624999999995 Q 4.274950927734375 3.1586624999999997 4.274950927734375 3.2066624999999997 Q 4.274950927734375 3.2434125 4.255450927734375 3.2764124999999997 Q 4.235950927734375 3.3094124999999996 4.197700927734375 3.3296624999999995 Q 4.159450927734375 3.3499125 4.106200927734375 3.3499125 Q 4.054450927734375 3.3499125 4.015075927734375 3.3319124999999996 M 4.451592041015625 3.3319124999999996 Q 4.412217041015625 3.3139125 4.389717041015625 3.2816624999999995 Q 4.367217041015625 3.2494124999999996 4.365717041015625 3.2096624999999994 L 4.421217041015625 3.2096624999999994 Q 4.424967041015625 3.2479124999999995 4.454967041015625 3.2767874999999997 Q 4.484967041015625 3.3056624999999995 4.542717041015625 3.3056624999999995 Q 4.595967041015625 3.3056624999999995 4.627092041015625 3.2782875 Q 4.658217041015625 3.2509124999999996 4.658217041015625 3.2089125 Q 4.658217041015625 3.1751624999999994 4.6409670410156245 3.1545374999999996 Q 4.623717041015625 3.1339124999999997 4.598217041015625 3.1237874999999997 Q 4.572717041015625 3.1136624999999998 4.527717041015625 3.1016624999999998 Q 4.475217041015625 3.0874124999999997 4.444467041015625 3.0739124999999996 Q 4.413717041015625 3.0604124999999995 4.391967041015625 3.0319125 Q 4.370217041015625 3.0034124999999996 4.370217041015625 2.9546624999999995 Q 4.370217041015625 2.9141624999999998 4.391217041015625 2.8822874999999994 Q 4.412217041015625 2.8504124999999996 4.450467041015625 2.8324124999999998 Q 4.488717041015625 2.8144124999999995 4.538217041015625 2.8144124999999995 Q 4.610967041015625 2.8144124999999995 4.655592041015625 2.8500374999999996 Q 4.700217041015625 2.8856624999999996 4.706967041015625 2.9419124999999995 L 4.649967041015625 2.9419124999999995 Q 4.644717041015625 2.9096624999999996 4.614717041015625 2.8845374999999995 Q 4.584717041015625 2.8594124999999995 4.533717041015625 2.8594124999999995 Q 4.486467041015625 2.8594124999999995 4.454967041015625 2.8845374999999995 Q 4.423467041015625 2.9096624999999996 4.423467041015625 2.9531624999999995 Q 4.423467041015625 2.9861625 4.440717041015625 3.0064124999999997 Q 4.457967041015625 3.0266624999999996 4.483842041015625 3.0371624999999995 Q 4.509717041015625 3.0476624999999995 4.553967041015625 3.0596624999999995 Q 4.604967041015625 3.0739124999999996 4.636467041015625 3.0877874999999997 Q 4.667967041015625 3.1016624999999998 4.689717041015625 3.1301624999999995 Q 4.7114670410156245 3.1586624999999997 4.7114670410156245 3.2066624999999997 Q 4.7114670410156245 3.2434125 4.691967041015625 3.2764124999999997 Q 4.672467041015625 3.3094124999999996 4.634217041015625 3.3296624999999995 Q 4.595967041015625 3.3499125 4.542717041015625 3.3499125 Q 4.490967041015625 3.3499125 4.451592041015625 3.3319124999999996 M 5.545473266601563 2.8271624999999996 L 5.545473266601563 3.3446624999999996 L 5.492973266601563 3.3446624999999996 L 5.492973266601563 2.9314124999999995 L 5.308473266601563 3.3446624999999996 L 5.270223266601563 3.3446624999999996 L 5.085723266601563 2.9329124999999996 L 5.085723266601563 3.3446624999999996 L 5.033223266601563 3.3446624999999996 L 5.033223266601563 2.8271624999999996 L 5.088723266601563 2.8271624999999996 L 5.288973266601563 3.2756624999999997 L 5.489223266601563 2.8271624999999996 L 5.545473266601563 2.8271624999999996 M 5.775708251953126 3.3157874999999994 Q 5.716458251953126 3.2816624999999995 5.682333251953126 3.2205375 Q 5.648208251953125 3.1594124999999997 5.648208251953125 3.0821624999999995 Q 5.648208251953125 3.0049124999999997 5.682333251953126 2.9437874999999996 Q 5.716458251953126 2.8826624999999995 5.775708251953126 2.8485374999999995 Q 5.834958251953125 2.8144124999999995 5.907708251953125 2.8144124999999995 Q 5.9812082519531256 2.8144124999999995 6.040458251953126 2.8485374999999995 Q 6.099708251953126 2.8826624999999995 6.133458251953126 2.9437874999999996 Q 6.1672082519531255 3.0049124999999997 6.1672082519531255 3.0821624999999995 Q 6.1672082519531255 3.1594124999999997 6.133458251953126 3.2205375 Q 6.099708251953126 3.2816624999999995 6.040458251953126 3.3157874999999994 Q 5.9812082519531256 3.3499125 5.907708251953125 3.3499125 Q 5.834958251953125 3.3499125 5.775708251953126 3.3157874999999994 M 6.012708251953126 3.2771624999999998 Q 6.059208251953126 3.2501624999999996 6.086208251953126 3.1995374999999995 Q 6.113208251953126 3.1489125 6.113208251953126 3.0821624999999995 Q 6.113208251953126 3.0154124999999996 6.086208251953126 2.9651624999999995 Q 6.059208251953126 2.9149125 6.012708251953126 2.8879124999999997 Q 5.966208251953126 2.8609124999999995 5.907708251953125 2.8609124999999995 Q 5.849208251953126 2.8609124999999995 5.802708251953126 2.8879124999999997 Q 5.756208251953126 2.9149125 5.729208251953126 2.9651624999999995 Q 5.702208251953126 3.0154124999999996 5.702208251953126 3.0821624999999995 Q 5.702208251953126 3.1489125 5.729208251953126 3.1995374999999995 Q 5.756208251953126 3.2501624999999996 5.802708251953126 3.2771624999999998 Q 5.849208251953126 3.3041624999999994 5.907708251953125 3.3041624999999994 Q 5.966208251953126 3.3041624999999994 6.012708251953126 3.2771624999999998 M 6.686226928710939 2.8204124999999998 L 6.487476928710938 3.3446624999999996 L 6.427476928710939 3.3446624999999996 L 6.228726928710938 2.8204124999999998 L 6.285726928710939 2.8204124999999998 L 6.457476928710938 3.2876624999999997 L 6.6307269287109385 2.8204124999999998 L 6.686226928710939 2.8204124999999998 M 6.824974365234376 2.8204124999999998 L 6.824974365234376 3.3446624999999996 L 6.772474365234376 3.3446624999999996 L 6.772474365234376 2.8204124999999998 L 6.824974365234376 2.8204124999999998 M 7.0042272949218765 2.8631624999999996 L 7.0042272949218765 3.0589124999999995 L 7.202977294921877 3.0589124999999995 L 7.202977294921877 3.1024125 L 7.0042272949218765 3.1024125 L 7.0042272949218765 3.3011624999999998 L 7.225477294921877 3.3011624999999998 L 7.225477294921877 3.3446624999999996 L 6.951727294921876 3.3446624999999996 L 6.951727294921876 2.8196624999999997 L 7.225477294921877 2.8196624999999997 L 7.225477294921877 2.8631624999999996 L 7.0042272949218765 2.8631624999999996 M 7.832960449218752 2.8204124999999998 L 7.832960449218752 2.8639124999999996 L 7.601960449218752 2.8639124999999996 L 7.601960449218752 3.0596624999999995 L 7.796960449218752 3.0596624999999995 L 7.796960449218752 3.1031625 L 7.601960449218752 3.1031625 L 7.601960449218752 3.3446624999999996 L 7.549460449218752 3.3446624999999996 L 7.549460449218752 2.8204124999999998 L 7.832960449218752 2.8204124999999998 M 7.97694616699219 2.8204124999999998 L 7.97694616699219 3.1504125 Q 7.97694616699219 3.2284124999999997 8.01407116699219 3.2659124999999998 Q 8.05119616699219 3.3034125 8.11569616699219 3.3034125 Q 8.18019616699219 3.3034125 8.21657116699219 3.2662875 Q 8.25294616699219 3.2291624999999997 8.25294616699219 3.1504125 L 8.25294616699219 2.8204124999999998 L 8.30544616699219 2.8204124999999998 L 8.30544616699219 3.1496625 Q 8.30544616699219 3.2494124999999996 8.25257116699219 3.2996624999999997 Q 8.19969616699219 3.3499125 8.11494616699219 3.3499125 Q 8.03019616699219 3.3499125 7.97732116699219 3.2996624999999997 Q 7.92444616699219 3.2494124999999996 7.92444616699219 3.1496625 L 7.92444616699219 2.8204124999999998 L 7.97694616699219 2.8204124999999998 M 8.825204223632815 3.3446624999999996 L 8.772704223632815 3.3446624999999996 L 8.482454223632816 2.9036625 L 8.482454223632816 3.3446624999999996 L 8.429954223632816 3.3446624999999996 L 8.429954223632816 2.8204124999999998 L 8.482454223632816 2.8204124999999998 L 8.772704223632815 3.2606624999999996 L 8.772704223632815 2.8204124999999998 L 8.825204223632815 2.8204124999999998 L 8.825204223632815 3.3446624999999996" fill="#423e3f" fill-rule="nonzero"></path></g><g clip-path="url(#SvgjsClipPath1001)"><g clip-path="url(#a74ba0b13-7dd1-45ce-a596-c03dda2876e6a2772208-1c0e-4ea4-906d-53cf89cb8ff4)"><path d=" M 5.510575194139479 -3.943845406715675 L 3.1117263903458863 -0.25 L 3.419546840905526 -0.25 L 3.5492615722548937 -0.4496128249262288 C 3.568617967399255 -0.4794539341071209 3.608540532384501 -0.5036494280375727 3.638381641565392 -0.5036494280375727 L 3.979538105984765 -0.5036494280375727 C 4.009379215165656 -0.5036494280375727 4.017847638041314 -0.4794539341071209 3.998491242896953 -0.4496128249262288 L 3.8687765115475847 -0.25 L 6.755702195682685 -0.25 L 6.885416927032053 -0.4496128249262288 C 6.904773322176414 -0.4794539341071209 6.94469588716166 -0.5036494280375727 6.974536996342551 -0.5036494280375727 L 7.315693460761925 -0.5036494280375727 C 7.345534569942815 -0.5036494280375727 7.354002992818474 -0.4794539341071209 7.334646597674112 -0.4496128249262288 L 7.204931866324745 -0.25 L 7.504418313419451 -0.25 L 9.903267117213044 -3.943845406715675 L 9.603780670118336 -3.943845406715675 L 9.452558833053011 -3.710896567929712 C 9.433068018497924 -3.681055458748821 9.39314545351268 -3.6568599648183686 9.36330434433179 -3.6568599648183686 L 9.02228229932314 -3.6568599648183686 C 8.992306770731524 -3.6568599648183686 8.983838347855867 -3.681055458748821 9.003329162410951 -3.710896567929712 L 9.154550999476278 -3.943845406715675 L 6.267625315341178 -3.943845406715675 L 6.116403478275853 -3.710896567929712 C 6.097047083131491 -3.681055458748821 6.056990098735521 -3.6568599648183686 6.02714898955463 -3.6568599648183686 L 5.686126944545981 -3.6568599648183686 C 5.6561514159543655 -3.6568599648183686 5.647682993078707 -3.681055458748821 5.667173807633794 -3.710896567929712 L 5.818395644699119 -3.943845406715675 Z M 7.353196476354125 -1.1701008664107997 C 7.372687290909211 -1.1999419755916918 7.412609855894457 -1.2241374695221436 7.442450965075348 -1.2241374695221436 L 7.7836074294947215 -1.2241374695221436 C 7.813448538675613 -1.2241374695221436 7.8219169615512705 -1.1999419755916918 7.8025605664069095 -1.1701008664107997 L 7.581037377532548 -0.8289444019914267 C 7.561546562977462 -0.7991032928105355 7.521623997992216 -0.7749077988800837 7.491782888811325 -0.7749077988800837 L 7.150760843802677 -0.7749077988800837 C 7.1207853152110605 -0.7749077988800837 7.112316892335403 -0.7991032928105355 7.131673287479765 -0.8289444019914267 Z M 7.821110445086923 -1.8905889078953715 C 7.840466840231284 -1.9204300170762618 7.880523824627254 -1.9446255110067137 7.910364933808145 -1.9446255110067137 L 8.251386978816795 -1.9446255110067137 C 8.28136250740841 -1.9446255110067137 8.289830930284069 -1.9204300170762618 8.270340115728981 -1.8905889078953715 L 8.04881692685462 -1.5494324434759985 C 8.02946053171026 -1.5195913342951064 7.989537966725012 -1.4953958403646546 7.959696857544122 -1.4953958403646546 L 7.618540393124749 -1.4953958403646546 C 7.588699283943858 -1.4953958403646546 7.5802308610682 -1.5195913342951064 7.599587256212561 -1.5494324434759985 Z M 8.28902441381972 -2.6110769493799424 C 8.308380808964081 -2.6409180585608327 8.348303373949328 -2.6651135524912846 8.378144483130217 -2.6651135524912846 L 8.719300947549591 -2.6651135524912846 C 8.749142056730483 -2.6651135524912846 8.75761047960614 -2.6409180585608327 8.73825408446178 -2.6110769493799424 L 8.516730895587418 -2.2699204849605694 C 8.497374500443057 -2.240079375779678 8.457451935457811 -2.2158838818492264 8.427610826276918 -2.2158838818492264 L 8.086454361857545 -2.2158838818492264 C 8.056613252676655 -2.2158838818492264 8.048144829800997 -2.240079375779678 8.06750122494536 -2.2699204849605694 Z M 8.756938382552518 -3.331564990864514 C 8.776294777696878 -3.3614061000454045 8.816217342682124 -3.3856015939758564 8.846058451863014 -3.3856015939758564 L 9.18721491628239 -3.3856015939758564 C 9.217056025463279 -3.3856015939758564 9.225524448338938 -3.3614061000454045 9.206168053194576 -3.331564990864514 L 8.984644864320215 -2.9904085264451403 C 8.965288469175853 -2.960567417264249 8.925365904190608 -2.9363719233337973 8.895390375598993 -2.9363719233337973 L 8.554368330590343 -2.9363719233337973 C 8.524527221409453 -2.9363719233337973 8.51592437912307 -2.960567417264249 8.535415193678155 -2.9904085264451403 Z M 4.017041121576966 -1.1701008664107997 C 4.036531936132053 -1.1999419755916918 4.076454501117299 -1.2241374695221436 4.10629561029819 -1.2241374695221436 L 4.447452074717562 -1.2241374695221436 C 4.477293183898453 -1.2241374695221436 4.485761606774112 -1.1999419755916918 4.46640521162975 -1.1701008664107997 L 4.244882022755389 -0.8289444019914267 C 4.225391208200303 -0.7991032928105355 4.185468643215057 -0.7749077988800837 4.155627534034167 -0.7749077988800837 L 3.814605489025518 -0.7749077988800837 C 3.784629960433902 -0.7749077988800837 3.7761615375582442 -0.7991032928105355 3.7956523521133305 -0.8289444019914267 Z M 4.4849550903097635 -1.8905889078953715 C 4.50444590486485 -1.9204300170762618 4.544368469850095 -1.9446255110067137 4.5742095790309865 -1.9446255110067137 L 4.915231624039635 -1.9446255110067137 C 4.945207152631251 -1.9446255110067137 4.953675575506909 -1.9204300170762618 4.934184760951823 -1.8905889078953715 L 4.7126615720774625 -1.5494324434759985 C 4.693305176933101 -1.5195913342951064 4.653382611947855 -1.4953958403646546 4.6235415027669635 -1.4953958403646546 L 4.28238503834759 -1.4953958403646546 C 4.252543929166699 -1.4953958403646546 4.244075506291042 -1.5195913342951064 4.2634319014354025 -1.5494324434759985 Z M 4.952869059042561 -2.6110769493799424 C 4.972225454186922 -2.6409180585608327 5.012148019172168 -2.6651135524912846 5.042123547763783 -2.6651135524912846 L 5.383145592772433 -2.6651135524912846 C 5.412986701953323 -2.6651135524912846 5.421455124828982 -2.6409180585608327 5.40209872968462 -2.6110769493799424 L 5.180575540810259 -2.2699204849605694 C 5.161219145665897 -2.240079375779678 5.121296580680651 -2.2158838818492264 5.09145547149976 -2.2158838818492264 L 4.750299007080387 -2.2158838818492264 C 4.720457897899497 -2.2158838818492264 4.711989475023838 -2.240079375779678 4.7313458701682 -2.2699204849605694 Z M 5.420783027775357 -3.331564990864514 C 5.440139422919719 -3.3614061000454045 5.480061987904965 -3.3856015939758564 5.509903097085855 -3.3856015939758564 L 5.851059561505229 -3.3856015939758564 C 5.88090067068612 -3.3856015939758564 5.889369093561778 -3.3614061000454045 5.870012698417416 -3.331564990864514 L 5.648489509543055 -2.9904085264451403 C 5.6291331143986945 -2.960567417264249 5.5892105494134485 -2.9363719233337973 5.559235020821832 -2.9363719233337973 L 5.218212975813183 -2.9363719233337973 C 5.188371866632293 -2.9363719233337973 5.1799034437566345 -2.960567417264249 5.199259838900996 -2.9904085264451403 Z" fill="#bdbcbc" transform="matrix(1,0,0,1,0,0)" fill-rule="nonzero"></path></g><g clip-path="url(#a74ba0b13-7dd1-45ce-a596-c03dda2876e6a2772208-1c0e-4ea4-906d-53cf89cb8ff4)"><path d=" M 3.418068227387553 -0.25 L 3.2668463903222276 -0.48294883878596284 C 3.2473555757671417 -0.5127899479668541 3.2558239986427995 -0.5369854418973059 3.2857995272344156 -0.5369854418973059 L 3.626821572243064 -0.5369854418973059 C 3.656662681423955 -0.5369854418973059 3.6965852464092004 -0.5127899479668541 3.716076060964287 -0.48294883878596284 L 3.867297898029612 -0.25 L 6.754223582164712 -0.25 L 6.602867325688662 -0.48294883878596284 C 6.583510930544301 -0.5127899479668541 6.591979353419958 -0.5369854418973059 6.621954882011575 -0.5369854418973059 L 6.9629769270202235 -0.5369854418973059 C 6.992818036201114 -0.5369854418973059 7.032740601186359 -0.5127899479668541 7.0522314157414465 -0.48294883878596284 L 7.203453252806772 -0.25 L 7.502939699901478 -0.25 L 5.104090896107884 -3.943845406715675 L 4.804604449013178 -3.943845406715675 L 4.934319180362546 -3.7442325817894453 C 4.953675575506908 -3.7143914726085545 4.94520715263125 -3.6901959786781027 4.9153660434503585 -3.6901959786781027 L 4.5742095790309865 -3.6901959786781027 C 4.544368469850095 -3.6901959786781027 4.504445904864848 -3.7143914726085545 4.4850895097204875 -3.7442325817894453 L 4.35537477837112 -3.943845406715675 L 1.4684490942360195 -3.943845406715675 L 1.5981638255853872 -3.7442325817894453 C 1.6175202207297485 -3.7143914726085545 1.6090517978540906 -3.6901959786781027 1.5792106886731996 -3.6901959786781027 L 1.2380542242538262 -3.6901959786781027 C 1.2082131150729354 -3.6901959786781027 1.16829055008769 -3.7143914726085545 1.1489341549433276 -3.7442325817894453 L 1.01921942359396 -3.943845406715675 L 0.7113989730343206 -3.943845406715675 L 3.1102477768279138 -0.25 Z M 4.731345870168199 -3.3649010047242474 C 4.711989475023837 -3.3947421139051386 4.720457897899495 -3.4189376078355904 4.75043342649111 -3.4189376078355904 L 5.091455471499759 -3.4189376078355904 C 5.12129658068065 -3.4189376078355904 5.161219145665896 -3.3947421139051386 5.180709960220982 -3.3649010047242474 L 5.402233149095343 -3.0237445403048744 C 5.421589544239705 -2.9939034311239823 5.413121121364046 -2.9697079371935304 5.383280012183156 -2.9697079371935304 L 5.042123547763782 -2.9697079371935304 C 5.012282438582891 -2.9697079371935304 4.972359873597645 -2.9939034311239823 4.952869059042559 -3.0237445403048744 Z M 5.199259838900995 -2.6444129632396765 C 5.1799034437566345 -2.6742540724205677 5.188371866632292 -2.6984495663510195 5.218212975813183 -2.6984495663510195 L 5.559369440232556 -2.6984495663510195 C 5.589210549413448 -2.6984495663510195 5.629133114398693 -2.6742540724205677 5.648489509543055 -2.6444129632396765 L 5.8700126984174155 -2.3032564988203026 C 5.889503512972502 -2.2734153896394114 5.881035090096844 -2.2492198957089595 5.851059561505228 -2.2492198957089595 L 5.510037516496579 -2.2492198957089595 C 5.480196407315688 -2.2492198957089595 5.440139422919718 -2.2734153896394114 5.420783027775357 -2.3032564988203026 Z M 5.667173807633793 -1.9239249217551047 C 5.647817412489431 -1.9537660309359959 5.6562858353650896 -1.9779615248664477 5.68612694454598 -1.9779615248664477 L 6.027283408965354 -1.9779615248664477 C 6.057124518146245 -1.9779615248664477 6.09704708313149 -1.9537660309359959 6.116403478275852 -1.9239249217551047 L 6.337926667150212 -1.5827684573357317 C 6.357283062294574 -1.5529273481548413 6.348814639418916 -1.5287318542243886 6.318973530238026 -1.5287318542243886 L 5.977817065818653 -1.5287318542243886 C 5.947975956637761 -1.5287318542243886 5.908053391652515 -1.5529273481548413 5.888696996508154 -1.5827684573357317 Z M 6.13508777636659 -1.2034368802705337 C 6.115596961811504 -1.233277989451424 6.124199804097887 -1.2574734833818768 6.154040913278777 -1.2574734833818768 L 6.495062958287426 -1.2574734833818768 C 6.525038486879041 -1.2574734833818768 6.564961051864287 -1.233277989451424 6.584317447008649 -1.2034368802705337 L 6.80584063588301 -0.8622804158511608 C 6.825197031027371 -0.8324393066702696 6.816728608151712 -0.8082438127398177 6.786887498970822 -0.8082438127398177 L 6.445731034551449 -0.8082438127398177 C 6.415889925370558 -0.8082438127398177 6.375967360385313 -0.8324393066702696 6.35661096524095 -0.8622804158511608 Z M 1.395324934801764 -3.3649010047242474 C 1.375834120246678 -3.3947421139051386 1.384302543122336 -3.4189376078355904 1.4142780717139514 -3.4189376078355904 L 1.7553001167226003 -3.4189376078355904 C 1.7851412259034911 -3.4189376078355904 1.825063790888737 -3.3947421139051386 1.8445546054438233 -3.3649010047242474 L 2.066077794318184 -3.0237445403048744 C 2.0854341894625454 -2.9939034311239823 2.0769657665868873 -2.9697079371935304 2.0471246574059965 -2.9697079371935304 L 1.705968192986623 -2.9697079371935304 C 1.6761270838057323 -2.9697079371935304 1.6362045188204863 -2.9939034311239823 1.6167137042654 -3.0237445403048744 Z M 1.8631044841238367 -2.6444129632396765 C 1.8437480889794748 -2.6742540724205677 1.8522165118551333 -2.6984495663510195 1.882057621036024 -2.6984495663510195 L 2.2232140854553974 -2.6984495663510195 C 2.2530551946362882 -2.6984495663510195 2.292977759621534 -2.6742540724205677 2.3124685741766204 -2.6444129632396765 L 2.533857343640256 -2.3032564988203026 C 2.5533481581953428 -2.2734153896394114 2.5448797353196846 -2.2492198957089595 2.514904206728069 -2.2492198957089595 L 2.1738821617194204 -2.2492198957089595 C 2.1440410525385296 -2.2492198957089595 2.103984068142559 -2.2734153896394114 2.0846276729981974 -2.3032564988203026 Z M 2.3310184528566333 -1.9239249217551047 C 2.311662057712272 -1.9537660309359959 2.32013048058793 -1.9779615248664477 2.349971589768821 -1.9779615248664477 L 2.6911280541881943 -1.9779615248664477 C 2.720969163369085 -1.9779615248664477 2.760891728354331 -1.9537660309359959 2.780248123498693 -1.9239249217551047 L 3.0017713123730534 -1.5827684573357317 C 3.021127707517415 -1.5529273481548413 3.0126592846417566 -1.5287318542243886 2.9828181754608663 -1.5287318542243886 L 2.6417961304522173 -1.5287318542243886 C 2.6118206018606016 -1.5287318542243886 2.571898036875356 -1.5529273481548413 2.5525416417309943 -1.5827684573357317 Z M 2.7989324215894307 -1.2034368802705337 C 2.7795760264450693 -1.233277989451424 2.788044449320727 -1.2574734833818768 2.8178855585016183 -1.2574734833818768 L 3.158907603510267 -1.2574734833818768 C 3.188883132101882 -1.2574734833818768 3.228805697087128 -1.233277989451424 3.2481620922314898 -1.2034368802705337 L 3.4696852811058507 -0.8622804158511608 C 3.489041676250212 -0.8324393066702696 3.480573253374554 -0.8082438127398177 3.450732144193663 -0.8082438127398177 L 3.1095756797742897 -0.8082438127398177 C 3.079734570593399 -0.8082438127398177 3.039812005608153 -0.8324393066702696 3.020455610463791 -0.8622804158511608 Z" fill="#696767" transform="matrix(1,0,0,1,0,0)" fill-rule="nonzero"></path></g><g clip-path="url(#a74ba0b13-7dd1-45ce-a596-c03dda2876e6a2772208-1c0e-4ea4-906d-53cf89cb8ff4)"><path d=" M 2.831193080163367 -6.663553343909206 C 2.801351970982476 -6.663553343909206 2.792883548106818 -6.687748837839658 2.8122399432511798 -6.717589947020549 L 2.9481379674938846 -6.926746550108234 L 2.801889648625375 -7.162787035340866 L 0.7113989730343206 -3.943845406715675 L 1.0108854201290267 -3.943845406715675 L 1.1622416766050765 -4.176794245501638 C 1.181598071749438 -4.206769774093253 1.221520636734684 -4.230965268023706 1.2513617459155748 -4.230965268023706 L 1.5925182103349482 -4.230965268023706 C 1.622359319515839 -4.230965268023706 1.6308277423914972 -4.206769774093253 1.6114713472471358 -4.176794245501638 L 1.4602495101818107 -3.943845406715675 L 4.347040774906185 -3.943845406715675 L 4.498397031382235 -4.176794245501638 C 4.517753426526597 -4.206635354682529 4.557675991511843 -4.230965268023706 4.587517100692734 -4.230965268023706 L 4.618567984570147 -4.230965268023706 L 3.1111887127029867 -6.663553343909206 Z M 2.0793853159799327 -4.89728228698621 L 1.857862127105572 -4.55626024197756 C 1.8385057319612106 -4.5262847133859445 1.7984487475652398 -4.502089219455494 1.7686076383843492 -4.502089219455494 L 1.4275855933757002 -4.502089219455494 C 1.3977444841948095 -4.502089219455494 1.3891416419084264 -4.5262847133859445 1.4086324564635129 -4.556260241977561 L 1.6301556453378734 -4.89728228698621 C 1.6495120404822352 -4.927123396167101 1.689434605467481 -4.951318890097552 1.719275714648372 -4.951318890097552 L 2.060432179067745 -4.951318890097552 C 2.0902732882486363 -4.951318890097552 2.098741711124294 -4.927123396167101 2.0793853159799327 -4.89728228698621 M 2.5472992847127296 -5.6177703284707805 L 2.325776095838369 -5.2767482834621315 C 2.306285281283283 -5.246772754870516 2.266362716298037 -5.222577260940064 2.2365216071171465 -5.222577260940064 L 1.8953651426977727 -5.222577260940064 C 1.8655240335168817 -5.222577260940064 1.8570556106412235 -5.246772754870516 1.8764120057855853 -5.2767482834621315 L 2.0979351946599456 -5.6177703284707805 C 2.1174260092150323 -5.647611437651672 2.1573485742002783 -5.671806931582124 2.1871896833811686 -5.671806931582124 L 2.5283461478005425 -5.671806931582124 C 2.558187256981433 -5.671806931582124 2.5666556798570914 -5.647611437651672 2.5472992847127296 -5.6177703284707805 M 3.015078834034802 -6.338258369955351 L 2.7935556451604415 -5.9971019055359776 C 2.7741992500160797 -5.967260796355087 2.734276685030834 -5.943065302424635 2.704435575849943 -5.943065302424635 L 2.36327911143057 -5.943065302424635 C 2.333438002249679 -5.943065302424635 2.324969579374021 -5.967260796355087 2.344325974518382 -5.9971019055359776 L 2.565849163392743 -6.338258369955351 C 2.5852055585371048 -6.368099479136243 2.6252625429330756 -6.3922949730666945 2.655103652113966 -6.3922949730666945 L 2.9961256971226145 -6.3922949730666945 C 3.0259668063035052 -6.3922949730666945 3.0345696485898883 -6.368099479136243 3.015078834034802 -6.338258369955351" fill="#4b4748" transform="matrix(1,0,0,1,0,0)" fill-rule="nonzero"></path></g><g clip-path="url(#SvgjsClipPath1000a2772208-1c0e-4ea4-906d-53cf89cb8ff4)"><path d=" M 3.1102873789016097 -7.637709282704557 L 2.9066419716536385 -7.324243216894478 Z" fill="#231f20" transform="matrix(1,0,0,1,0,0)" fill-rule="nonzero"></path></g><g clip-path="url(#SvgjsClipPath1000a2772208-1c0e-4ea4-906d-53cf89cb8ff4)"><path d=" M 3.8590389733700423 -7.637709282704557 L 6.635068643657237 -7.572112610270887 Z" fill="#231f20" transform="matrix(1,0,0,1,0,0)" fill-rule="nonzero"></path></g><g clip-path="url(#b74ba0b13-7dd1-45ce-a596-c03dda2876e6a2772208-1c0e-4ea4-906d-53cf89cb8ff4)"><path d=" M 5.864367083166977 -5.671806931582124 L 5.523210618747604 -5.671806931582124 C 5.493369509566713 -5.671806931582124 5.453446944581467 -5.647611437651671 5.434090549437105 -5.61777032847078 L 5.212567360562744 -5.2766138640514075 C 5.193210965418382 -5.246772754870516 5.201679388294041 -5.222577260940064 5.231520497474932 -5.222577260940064 L 5.572676961894306 -5.222577260940064 C 5.602518071075196 -5.222577260940064 5.642440636060442 -5.246772754870516 5.661797031204804 -5.2766138640514075 L 5.883320220079164 -5.61777032847078 C 5.902676615223526 -5.647611437651671 5.894208192347867 -5.671806931582124 5.864367083166977 -5.671806931582124" fill="#231f20" transform="matrix(1,0,0,1,0,0)" fill-rule="nonzero"></path></g><g clip-path="url(#b74ba0b13-7dd1-45ce-a596-c03dda2876e6a2772208-1c0e-4ea4-906d-53cf89cb8ff4)"><path d=" M 6.332281051899774 -6.392294973066694 L 5.991124587480401 -6.392294973066694 C 5.96128347829951 -6.392294973066694 5.921360913314264 -6.368099479136242 5.902004518169902 -6.338258369955351 L 5.680481329295541 -5.9971019055359776 C 5.6611249341511805 -5.967260796355086 5.669593357026838 -5.9430653024246345 5.699434466207729 -5.9430653024246345 L 6.040590930627103 -5.9430653024246345 C 6.070432039807994 -5.9430653024246345 6.1103546047932396 -5.967260796355086 6.129710999937601 -5.9971019055359776 L 6.3512341888119614 -6.338258369955351 C 6.370590583956323 -6.368099479136242 6.362122161080665 -6.392294973066694 6.332281051899774 -6.392294973066694" fill="#231f20" transform="matrix(1,0,0,1,0,0)" fill-rule="nonzero"></path></g><g clip-path="url(#SvgjsClipPath1000a2772208-1c0e-4ea4-906d-53cf89cb8ff4)"><path d=" M 2.801794060055049 -7.162669897604886 L 2.9066412004203412 -7.324242029296015 Z" fill="#231f20" transform="matrix(1,0,0,1,0,0)" fill-rule="nonzero"></path></g><g clip-path="url(#c74ba0b13-7dd1-45ce-a596-c03dda2876e6a2772208-1c0e-4ea4-906d-53cf89cb8ff4)"><path d=" M 6.800195020632571 -7.112783014551265 L 6.459038556213198 -7.112783014551265 C 6.429197447032307 -7.112783014551265 6.389274882047061 -7.0885875206208135 6.369918486902699 -7.058746411439922 L 6.148395298028338 -6.717589947020549 C 6.129038902883977 -6.687748837839658 6.137507325759635 -6.663553343909206 6.167348434940526 -6.663553343909206 L 6.5085048993599 -6.663553343909206 C 6.53834600854079 -6.663553343909206 6.578268573526036 -6.687748837839658 6.597624968670398 -6.717589947020549 L 6.819148157544758 -7.058746411439922 C 6.83850455268912 -7.0885875206208135 6.830036129813461 -7.112783014551265 6.800195020632571 -7.112783014551265" fill="#231f20" transform="matrix(1,0,0,1,0,0)" fill-rule="nonzero"></path></g><g clip-path="url(#c74ba0b13-7dd1-45ce-a596-c03dda2876e6a2772208-1c0e-4ea4-906d-53cf89cb8ff4)"><path d=" M 7.195119249341838 -7.63769081343135 L 7.065404517992469 -7.438077988505121 C 7.046048122848108 -7.408102459913505 7.0061255578628625 -7.383906965983053 6.976284448681972 -7.383906965983053 L 6.635127984262597 -7.383906965983053 C 6.605286875081707 -7.383906965983053 6.5968184522060485 -7.408102459913505 6.61617484735041 -7.438077988505121 L 6.6618774469968205 -7.484721524026603 L 3.858963894564679 -7.63769081343135 L 3.729249163215311 -7.438077988505121 C 3.70989276807095 -7.408102459913505 3.6699702030857035 -7.383906965983053 3.6401290939048128 -7.383906965983053 L 3.2989726294854393 -7.383906965983053 C 3.269131520304548 -7.383906965983053 3.2606630974288904 -7.408102459913505 3.280019492573252 -7.438077988505121 L 3.4156486779945086 -7.6124199642151 L 3.1064840333276216 -7.63769081343135 L 2.906602369579943 -7.324224747621272 L 2.80175522921465 -7.162652615930142 L 2.9480035480831606 -6.926746550108235 L 3.033628712714816 -7.058611992029198 C 3.053119527269902 -7.0884531012100895 3.0930420922551476 -7.112783014551266 3.122883201436039 -7.112783014551266 L 3.4640396658554122 -7.112783014551266 C 3.4938807750363035 -7.112783014551266 3.502349197911961 -7.0884531012100895 3.4829928027675994 -7.058611992029198 L 3.2614696138932393 -6.717589947020549 C 3.2419787993381526 -6.687748837839659 3.2020562343529066 -6.663418924498482 3.172215125172016 -6.663418924498482 L 3.1110542932922627 -6.663418924498482 L 4.618433565159423 -4.230830848612982 L 4.928539145701382 -4.230830848612982 C 4.9585146742929975 -4.230830848612982 4.966983097168656 -4.206635354682529 4.94749228261357 -4.176794245501638 L 4.796270445548244 -3.943845406715675 L 5.104090896107884 -3.943845406715675 L 7.475114881881457 -7.585536082070154 Z M 5.415406251346367 -4.89728228698621 L 5.193883062472007 -4.556125822566836 C 5.174526667327644 -4.5262847133859445 5.134604102342399 -4.502089219455494 5.104762993161509 -4.502089219455494 L 4.763606528742135 -4.502089219455494 C 4.7337654195612435 -4.502089219455494 4.725296996685586 -4.5262847133859445 4.744653391829948 -4.556125822566836 L 4.966176580704309 -4.89728228698621 C 4.9855329758486695 -4.927123396167101 5.025455540833915 -4.951318890097552 5.0554310694255316 -4.951318890097552 L 5.3964531144341805 -4.951318890097552 C 5.426294223615071 -4.951318890097552 5.4347626464907295 -4.927123396167101 5.415406251346368 -4.89728228698621 M 5.883320220079165 -5.617635909060056 L 5.661797031204804 -5.2766138640514075 C 5.642440636060442 -5.246772754870516 5.602518071075196 -5.222577260940064 5.572542542483581 -5.222577260940064 L 5.231520497474931 -5.222577260940064 C 5.201679388294041 -5.222577260940064 5.193210965418382 -5.246772754870516 5.212567360562745 -5.2766138640514075 L 5.434090549437105 -5.617635909060056 C 5.453446944581467 -5.647611437651671 5.493369509566714 -5.671806931582124 5.523210618747604 -5.671806931582124 L 5.864367083166977 -5.671806931582124 C 5.894208192347867 -5.671806931582124 5.902676615223526 -5.647611437651671 5.883320220079164 -5.617635909060056 M 6.3512341888119614 -6.3381239505446265 L 6.1297109999376005 -5.9971019055359776 C 6.110354604793239 -5.967260796355087 6.070297620397269 -5.943065302424635 6.0404565112163775 -5.943065302424635 L 5.6994344662077285 -5.943065302424635 C 5.669458937616113 -5.943065302424635 5.660990514740455 -5.967260796355087 5.680481329295541 -5.9971019055359776 L 5.9020045181699015 -6.3381239505446265 C 5.921360913314263 -6.368099479136243 5.96128347829951 -6.3922949730666945 5.9911245874804 -6.3922949730666945 L 6.332281051899773 -6.3922949730666945 C 6.362122161080665 -6.3922949730666945 6.370590583956323 -6.368099479136243 6.3512341888119614 -6.3381239505446265 M 6.819013738134034 -7.058611992029198 L 6.597624968670398 -6.717589947020549 C 6.578134154115311 -6.687614418428934 6.538211589130066 -6.663418924498481 6.508370479949175 -6.663418924498481 L 6.167214015529801 -6.663418924498481 C 6.137372906348911 -6.663418924498481 6.128904483473252 -6.687748837839658 6.148260878617614 -6.717589947020549 L 6.369784067491974 -7.058611992029198 C 6.389274882047061 -7.088453101210089 6.4291974470323074 -7.112783014551265 6.459038556213198 -7.112783014551265 L 6.800060601221846 -7.112783014551265 C 6.830036129813462 -7.112783014551265 6.83850455268912 -7.088453101210089 6.819013738134034 -7.058611992029198" fill="#423e3f" transform="matrix(1,0,0,1,0,0)" fill-rule="nonzero"></path></g><g clip-path="url(#c74ba0b13-7dd1-45ce-a596-c03dda2876e6a2772208-1c0e-4ea4-906d-53cf89cb8ff4)"><path d=" M 7.201840219878074 -7.63769081343135 L 7.353062056943399 -7.404741974645387 C 7.372552871498486 -7.374900865464496 7.364084448622827 -7.350705371534044 7.334108920031212 -7.350705371534044 L 6.993086875022564 -7.350705371534044 C 6.963245765841672 -7.350705371534044 6.9233232008564265 -7.374900865464496 6.90383238630134 -7.404741974645387 L 6.729221571769911 -7.63769081343135 L 3.865684865100915 -7.63769081343135 L 4.0169067021662395 -7.404741974645387 C 4.036397516721326 -7.374900865464496 4.0279290938456676 -7.350705371534044 3.9979535652540523 -7.350705371534044 L 3.656931520245404 -7.350705371534044 C 3.627090411064513 -7.350705371534044 3.5871678460792675 -7.374900865464496 3.567677031524181 -7.404741974645387 L 3.4164551944588557 -7.63769081343135 L 3.116968747364149 -7.63769081343135 L 5.515817551157742 -3.943845406715675 L 5.815303998252448 -3.943845406715675 L 5.68558926690308 -4.143458231641905 C 5.6662328717587185 -4.173299340822796 5.674701294634377 -4.197494834753247 5.704542403815268 -4.197494834753247 L 6.045698868234641 -4.197494834753247 C 6.0755399774155325 -4.197494834753247 6.115462542400778 -4.173299340822796 6.134818937545139 -4.143458231641905 L 6.264533668894508 -3.943845406715675 L 9.151459353029606 -3.943845406715675 L 9.02174462168024 -4.143458231641905 C 9.002388226535878 -4.173299340822796 9.010856649411537 -4.197494834753247 9.040697758592428 -4.197494834753247 L 9.3818542230118 -4.197494834753247 C 9.411695332192691 -4.197494834753247 9.451617897177936 -4.173299340822796 9.4709742923223 -4.143458231641905 L 9.600689023671666 -3.943845406715675 L 9.908509474231305 -3.943845406715675 L 7.509660670437714 -7.63769081343135 Z M 5.888562577097429 -4.522789808707103 C 5.90791897224179 -4.492948699526211 5.899450549366131 -4.4687532055957595 5.869475020774516 -4.4687532055957595 L 5.528452975765868 -4.4687532055957595 C 5.4986118665849775 -4.4687532055957595 5.458689301599731 -4.492948699526211 5.439198487044645 -4.522789808707103 L 5.217675298170284 -4.8639462731264755 C 5.198318903025922 -4.893787382307367 5.206787325901581 -4.917982876237819 5.236628435082472 -4.917982876237819 L 5.577784899501846 -4.917982876237819 C 5.607626008682736 -4.917982876237819 5.647548573667981 -4.893787382307367 5.667039388223068 -4.8639462731264755 Z M 5.4206486083646315 -5.2432778501916735 C 5.440005003508993 -5.213436741010783 5.431536580633335 -5.18924124708033 5.401695471452444 -5.18924124708033 L 5.0605390070330705 -5.18924124708033 C 5.030697897852179 -5.18924124708033 4.990775332866933 -5.213436741010783 4.971418937722572 -5.2432778501916735 L 4.749895748848211 -5.5844343146110464 C 4.730404934293125 -5.614275423791938 4.738873357168783 -5.6384709177223895 4.768848885760399 -5.6384709177223895 L 5.1098709307690475 -5.6384709177223895 C 5.139712039949938 -5.6384709177223895 5.179769024345908 -5.614275423791938 5.1991254194902705 -5.5844343146110464 Z M 4.952734639631834 -5.963765891676244 C 4.972091034776195 -5.933924782495354 4.963622611900537 -5.909729288564902 4.933781502719647 -5.909729288564902 L 4.592625038300273 -5.909729288564902 C 4.562783929119382 -5.909729288564902 4.522861364134137 -5.933924782495354 4.503504968989775 -5.963765891676244 L 4.281981780115415 -6.304922356095618 C 4.262625384971054 -6.334763465276509 4.271093807846711 -6.35895895920696 4.300934917027602 -6.35895895920696 L 4.64195696203625 -6.35895895920696 C 4.671932490627866 -6.35895895920696 4.711855055613111 -6.334763465276509 4.731211450757474 -6.304922356095618 Z M 4.484820670899037 -6.684253933160816 C 4.5043114854541235 -6.654412823979925 4.49570864316774 -6.630217330049473 4.46586753398685 -6.630217330049473 L 4.124845488978201 -6.630217330049473 C 4.0948699603865855 -6.630217330049473 4.0549473954013395 -6.654412823979925 4.035591000256979 -6.684253933160816 L 3.8140678113826176 -7.025410397580189 C 3.7947114162382563 -7.05525150676108 3.803179839113914 -7.079447000691532 3.8330209482948048 -7.079447000691532 L 4.174177412714178 -7.079447000691532 C 4.204018521895069 -7.079447000691532 4.243941086880314 -7.05525150676108 4.263297482024676 -7.025410397580189 Z M 9.224583512463862 -4.522789808707103 C 9.24407432701895 -4.492948699526211 9.235605904143291 -4.4687532055957595 9.205630375551676 -4.4687532055957595 L 8.864608330543026 -4.4687532055957595 C 8.834767221362135 -4.4687532055957595 8.79484465637689 -4.492948699526211 8.775353841821802 -4.522789808707103 L 8.553830652947443 -4.8639462731264755 C 8.534474257803081 -4.893787382307367 8.54294268067874 -4.917982876237819 8.572783789859631 -4.917982876237819 L 8.913940254279003 -4.917982876237819 C 8.943781363459895 -4.917982876237819 8.98370392844514 -4.893787382307367 9.003194743000227 -4.8639462731264755 Z M 8.756803963141792 -5.2432778501916735 C 8.776160358286152 -5.213436741010783 8.767691935410493 -5.18924124708033 8.737850826229604 -5.18924124708033 L 8.39669436181023 -5.18924124708033 C 8.36685325262934 -5.18924124708033 8.326930687644092 -5.213436741010783 8.30757429249973 -5.2432778501916735 L 8.08605110362537 -5.5844343146110464 C 8.066560289070285 -5.614275423791938 8.075028711945942 -5.6384709177223895 8.105004240537557 -5.6384709177223895 L 8.446026285546207 -5.6384709177223895 C 8.475867394727098 -5.6384709177223895 8.515789959712343 -5.614275423791938 8.535280774267429 -5.5844343146110464 Z M 8.288889994408994 -5.963765891676244 C 8.308246389553355 -5.933924782495354 8.299777966677697 -5.909729288564902 8.269936857496806 -5.909729288564902 L 7.9287803930774325 -5.909729288564902 C 7.898939283896542 -5.909729288564902 7.859016718911295 -5.933924782495354 7.8396603237669344 -5.963765891676244 L 7.6181371348925735 -6.304922356095618 C 7.598646320337487 -6.334763465276509 7.60724916262387 -6.35895895920696 7.637090271804761 -6.35895895920696 L 7.97811231681341 -6.35895895920696 C 8.008087845405026 -6.35895895920696 8.04801041039027 -6.334763465276509 8.067366805534633 -6.304922356095618 Z M 7.820976025676196 -6.684253933160816 C 7.840332420820558 -6.654412823979925 7.8318639979449 -6.630217330049473 7.802022888764009 -6.630217330049473 L 7.46100084375536 -6.630217330049473 C 7.431025315163745 -6.630217330049473 7.391102750178499 -6.654412823979925 7.371746355034137 -6.684253933160816 L 7.150223166159776 -7.025410397580189 C 7.130866771015414 -7.05525150676108 7.139335193891073 -7.079447000691532 7.169176303071963 -7.079447000691532 L 7.510332767491338 -7.079447000691532 C 7.540173876672228 -7.079447000691532 7.580096441657473 -7.05525150676108 7.599452836801835 -7.025410397580189 Z" fill="#f89c2a" transform="matrix(1,0,0,1,0,0)" fill-rule="nonzero"></path></g><g clip-path="url(#c74ba0b13-7dd1-45ce-a596-c03dda2876e6a2772208-1c0e-4ea4-906d-53cf89cb8ff4)"><path d=" M 7.666662542164203 -0.9610786827338398 L 7.581037377532549 -0.8290788214021516 C 7.561546562977462 -0.7992377122212604 7.521623997992216 -0.7750422182908085 7.491782888811325 -0.7750422182908085 L 7.150626424391952 -0.7750422182908085 C 7.1207853152110605 -0.7750422182908085 7.112316892335403 -0.7992377122212604 7.131673287479765 -0.8290788214021516 L 7.353196476354125 -1.1702352858215246 C 7.372687290909211 -1.2000763950024158 7.412609855894457 -1.2242718889328676 7.442450965075348 -1.2242718889328676 L 7.503611796955102 -1.2242718889328676 L 5.996232525087941 -3.656994384229093 L 5.685992525135256 -3.656994384229093 C 5.6561514159543655 -3.656994384229093 5.647682993078707 -3.681189878159545 5.667039388223069 -3.711030987340436 L 5.818395644699119 -3.943979826126399 L 5.510575194139479 -3.943979826126399 L 4.598808331193613 -2.540103500517283 L 4.4563237558253945 -2.3205966028037937 L 4.719785800845872 -1.9447599304174386 L 4.9152316240396345 -1.9447599304174386 C 4.945072733220527 -1.9447599304174386 4.953675575506909 -1.9205644364869867 4.934184760951823 -1.8907233273060955 L 4.849366112784516 -1.7599332406709305 L 5.907784552831067 -0.2501344194107249 L 6.755702195682685 -0.2501344194107249 L 6.885282507621328 -0.4497472443369537 C 6.904773322176414 -0.479588353517844 6.94469588716166 -0.5037838474482967 6.97453699634255 -0.5037838474482967 L 7.315693460761924 -0.5037838474482967 C 7.345534569942815 -0.5037838474482967 7.354002992818473 -0.479588353517844 7.334646597674112 -0.4497472443369537 L 7.204931866324744 -0.2501344194107249 L 7.504418313419451 -0.2501344194107249 L 7.708063720667421 -0.5636004852208032 L 7.812910861032713 -0.7250381975012079 Z M 5.402098729684619 -2.6112113687906673 L 5.180575540810259 -2.2700549043712943 C 5.161219145665897 -2.240213795190403 5.121296580680651 -2.2160183012599513 5.09145547149976 -2.2160183012599513 L 4.750299007080387 -2.2160183012599513 C 4.720457897899495 -2.2160183012599513 4.711989475023838 -2.240213795190403 4.731345870168199 -2.2700549043712943 L 4.95286905904256 -2.6112113687906673 C 4.972225454186922 -2.6410524779715576 5.012148019172167 -2.6652479719020095 5.041989128353058 -2.6652479719020095 L 5.383145592772432 -2.6652479719020095 C 5.412986701953323 -2.6652479719020095 5.421455124828981 -2.6410524779715576 5.402098729684619 -2.6112113687906673 M 5.870012698417416 -3.331699410275238 L 5.648489509543055 -2.9905429458558643 C 5.629133114398694 -2.960701836674974 5.589076130002724 -2.936506342744522 5.559235020821832 -2.936506342744522 L 5.218212975813183 -2.936506342744522 C 5.188371866632293 -2.936506342744522 5.17976902434591 -2.960701836674974 5.199259838900997 -2.9905429458558643 L 5.420783027775357 -3.331699410275238 C 5.440139422919718 -3.3615405194561303 5.480061987904964 -3.385736013386582 5.509903097085855 -3.385736013386582 L 5.851059561505229 -3.385736013386582 C 5.8809006706861195 -3.385736013386582 5.889369093561778 -3.3615405194561303 5.870012698417416 -3.331699410275238" fill="#a7a5a6" transform="matrix(1,0,0,1,0,0)" fill-rule="nonzero"></path></g><g clip-path="url(#SvgjsClipPath1000a2772208-1c0e-4ea4-906d-53cf89cb8ff4)"><path d=" M 3.111799601052818 -0.25 L 4.456396966532327 -2.3205966028037937 L 4.454111836550006 -2.3239570880719116 Z" fill="#a7a5a6" transform="matrix(1,0,0,1,0,0)" fill-rule="nonzero"></path></g><g clip-path="url(#d74ba0b13-7dd1-45ce-a596-c03dda2876e6a2772208-1c0e-4ea4-906d-53cf89cb8ff4)"><path d=" M 4.712661572077461 -1.5495668628867225 C 4.693305176933099 -1.5197257537058322 4.653382611947853 -1.4955302597753795 4.623407083356238 -1.4955302597753795 L 4.282385038347589 -1.4955302597753795 C 4.252543929166698 -1.4955302597753795 4.24407550629104 -1.5197257537058322 4.263431901435402 -1.5495668628867225 L 4.484955090309762 -1.8907233273060955 C 4.5043114854541235 -1.9205644364869867 4.5442340504393695 -1.9447599304174386 4.574075159620261 -1.9447599304174386 L 4.719785800845871 -1.9447599304174386 L 4.4563237558253945 -2.3205966028037937 L 3.1115919709351605 -0.25 L 3.419546840905525 -0.25 L 3.549127152844168 -0.4497472443369537 C 3.5684835479885297 -0.4795883535178449 3.6085405323845006 -0.5037838474482967 3.6383816415653913 -0.5037838474482967 L 3.97940368657404 -0.5037838474482967 C 4.009379215165655 -0.5037838474482967 4.017847638041314 -0.4795883535178449 3.9983568234862275 -0.4497472443369537 L 3.8687765115475843 -0.25 L 5.907650133420341 -0.25 L 4.84923169337379 -1.7599332406709305 Z M 4.466270792219024 -1.1702352858215246 L 4.244747603344663 -0.8290788214021507 C 4.225391208200302 -0.7992377122212604 4.1854686432150565 -0.7750422182908085 4.155627534034165 -0.7750422182908085 L 3.8144710696147914 -0.7750422182908085 C 3.784629960433901 -0.7750422182908085 3.7761615375582425 -0.7992377122212604 3.7955179327026043 -0.8290788214021507 L 4.017041121576964 -1.1702352858215237 C 4.036397516721326 -1.2000763950024158 4.076320081706573 -1.2242718889328676 4.106295610298188 -1.2242718889328676 L 4.447317655306837 -1.2242718889328676 C 4.4771587644877275 -1.2242718889328676 4.485627187363386 -1.2000763950024158 4.466270792219024 -1.1702352858215237" fill="#939192" transform="matrix(1,0,0,1,0,0)" fill-rule="nonzero"></path></g></g></g><defs><clipPath id="SvgjsClipPath1001"><path d=" M 0.7113989730343206 -7.637709282704557 h 9.197110501196983 v 7.387709282704557 h -9.197110501196983 Z"></path></clipPath><clipPath id="a74ba0b13-7dd1-45ce-a596-c03dda2876e6a2772208-1c0e-4ea4-906d-53cf89cb8ff4"><path d=" M 0.7113989730343206 -0.25 L 9.908509474231307 -0.25 L 9.908509474231307 -7.637825232842073 L 0.7113989730343206 -7.637825232842073 Z"></path></clipPath><clipPath id="SvgjsClipPath1000a2772208-1c0e-4ea4-906d-53cf89cb8ff4"><path d=" M 0.7113989730343206 -7.637709282704557 L 9.908509474231304 -7.637709282704557 L 9.908509474231304 -0.25 L 0.7113989730343206 -0.25 Z"></path></clipPath><clipPath id="b74ba0b13-7dd1-45ce-a596-c03dda2876e6a2772208-1c0e-4ea4-906d-53cf89cb8ff4"><path d=" M 0.7113989730343206 -0.25 L 9.908509474231307 -0.25 L 9.908509474231307 -7.637825232842073 L 0.7113989730343206 -7.637825232842073 Z"></path></clipPath><clipPath id="c74ba0b13-7dd1-45ce-a596-c03dda2876e6a2772208-1c0e-4ea4-906d-53cf89cb8ff4"><path d=" M 0.7113989730343206 -0.25 L 9.908509474231307 -0.25 L 9.908509474231307 -7.637825232842073 L 0.7113989730343206 -7.637825232842073 Z"></path></clipPath><clipPath id="d74ba0b13-7dd1-45ce-a596-c03dda2876e6a2772208-1c0e-4ea4-906d-53cf89cb8ff4"><path d=" M 0.7113989730343206 -0.25 L 9.908509474231307 -0.25 L 9.908509474231307 -7.637825232842073 L 0.7113989730343206 -7.637825232842073 Z"></path></clipPath></defs></svg>